<?xml version="1.0" encoding="UTF-8" standalone="no"?>
<!DOCTYPE svg PUBLIC "-//W3C//DTD SVG 1.1//EN" "http://www.w3.org/Graphics/SVG/1.1/DTD/svg11.dtd">
<svg width="100%" height="100%" viewBox="0 0 924 264" version="1.1" xmlns="http://www.w3.org/2000/svg" xmlns:xlink="http://www.w3.org/1999/xlink" xml:space="preserve" xmlns:serif="http://www.serif.com/" style="fill-rule:evenodd;clip-rule:evenodd;stroke-linejoin:round;stroke-miterlimit:2;">
    <g transform="matrix(0.977383,0,0,0.977383,-28.2096,-11.6927)">
        <path d="M63.462,20.955C63.462,17.659 60.785,14.982 57.488,14.982L45.541,14.982C42.244,14.982 39.568,17.659 39.568,20.955L39.568,32.902C39.568,36.199 42.244,38.876 45.541,38.876L57.488,38.876C60.785,38.876 63.462,36.199 63.462,32.902L63.462,20.955Z" style="fill:rgb(235,235,235);"/>
    </g>
    <g transform="matrix(0.977383,0,0,0.977383,-28.2096,17.6288)">
        <path d="M63.462,20.955C63.462,17.659 60.785,14.982 57.488,14.982L45.541,14.982C42.244,14.982 39.568,17.659 39.568,20.955L39.568,32.902C39.568,36.199 42.244,38.876 45.541,38.876L57.488,38.876C60.785,38.876 63.462,36.199 63.462,32.902L63.462,20.955Z" style="fill:rgb(235,235,235);"/>
    </g>
    <g transform="matrix(0.977383,0,0,0.977383,-28.2096,46.9503)">
        <path d="M63.462,20.955C63.462,17.659 60.785,14.982 57.488,14.982L45.541,14.982C42.244,14.982 39.568,17.659 39.568,20.955L39.568,32.902C39.568,36.199 42.244,38.876 45.541,38.876L57.488,38.876C60.785,38.876 63.462,36.199 63.462,32.902L63.462,20.955Z" style="fill:rgb(235,235,235);"/>
    </g>
    <g transform="matrix(0.977383,0,0,0.977383,-28.2096,76.2718)">
        <path d="M63.462,20.955C63.462,17.659 60.785,14.982 57.488,14.982L45.541,14.982C42.244,14.982 39.568,17.659 39.568,20.955L39.568,32.902C39.568,36.199 42.244,38.876 45.541,38.876L57.488,38.876C60.785,38.876 63.462,36.199 63.462,32.902L63.462,20.955Z" style="fill:rgb(235,235,235);"/>
    </g>
    <g transform="matrix(0.977383,0,0,0.977383,-28.2096,105.593)">
        <path d="M63.462,20.955C63.462,17.659 60.785,14.982 57.488,14.982L45.541,14.982C42.244,14.982 39.568,17.659 39.568,20.955L39.568,32.902C39.568,36.199 42.244,38.876 45.541,38.876L57.488,38.876C60.785,38.876 63.462,36.199 63.462,32.902L63.462,20.955Z" style="fill:rgb(235,235,235);"/>
    </g>
    <g transform="matrix(0.977383,0,0,0.977383,-28.2096,134.915)">
        <path d="M63.462,20.955C63.462,17.659 60.785,14.982 57.488,14.982L45.541,14.982C42.244,14.982 39.568,17.659 39.568,20.955L39.568,32.902C39.568,36.199 42.244,38.876 45.541,38.876L57.488,38.876C60.785,38.876 63.462,36.199 63.462,32.902L63.462,20.955Z" style="fill:rgb(235,235,235);"/>
    </g>
    <g transform="matrix(0.977383,0,0,0.977383,-28.2096,164.236)">
        <path d="M63.462,20.955C63.462,17.659 60.785,14.982 57.488,14.982L45.541,14.982C42.244,14.982 39.568,17.659 39.568,20.955L39.568,32.902C39.568,36.199 42.244,38.876 45.541,38.876L57.488,38.876C60.785,38.876 63.462,36.199 63.462,32.902L63.462,20.955Z" style="fill:rgb(235,235,235);"/>
    </g>
    <g transform="matrix(0.977383,0,0,0.977383,1.11194,-11.6927)">
        <path d="M63.462,20.955C63.462,17.659 60.785,14.982 57.488,14.982L45.541,14.982C42.244,14.982 39.568,17.659 39.568,20.955L39.568,32.902C39.568,36.199 42.244,38.876 45.541,38.876L57.488,38.876C60.785,38.876 63.462,36.199 63.462,32.902L63.462,20.955Z" style="fill:rgb(235,235,235);"/>
    </g>
    <g transform="matrix(0.977383,0,0,0.977383,1.11194,17.6288)">
        <path d="M63.462,20.955C63.462,17.659 60.785,14.982 57.488,14.982L45.541,14.982C42.244,14.982 39.568,17.659 39.568,20.955L39.568,32.902C39.568,36.199 42.244,38.876 45.541,38.876L57.488,38.876C60.785,38.876 63.462,36.199 63.462,32.902L63.462,20.955Z" style="fill:rgb(235,235,235);"/>
    </g>
    <g transform="matrix(0.977383,0,0,0.977383,1.11194,46.9503)">
        <path d="M63.462,20.955C63.462,17.659 60.785,14.982 57.488,14.982L45.541,14.982C42.244,14.982 39.568,17.659 39.568,20.955L39.568,32.902C39.568,36.199 42.244,38.876 45.541,38.876L57.488,38.876C60.785,38.876 63.462,36.199 63.462,32.902L63.462,20.955Z" style="fill:rgb(235,235,235);"/>
    </g>
    <g transform="matrix(0.977383,0,0,0.977383,1.11194,76.2718)">
        <path d="M63.462,20.955C63.462,17.659 60.785,14.982 57.488,14.982L45.541,14.982C42.244,14.982 39.568,17.659 39.568,20.955L39.568,32.902C39.568,36.199 42.244,38.876 45.541,38.876L57.488,38.876C60.785,38.876 63.462,36.199 63.462,32.902L63.462,20.955Z" style="fill:rgb(235,235,235);"/>
    </g>
    <g transform="matrix(0.977383,0,0,0.977383,1.11194,105.593)">
        <path d="M63.462,20.955C63.462,17.659 60.785,14.982 57.488,14.982L45.541,14.982C42.244,14.982 39.568,17.659 39.568,20.955L39.568,32.902C39.568,36.199 42.244,38.876 45.541,38.876L57.488,38.876C60.785,38.876 63.462,36.199 63.462,32.902L63.462,20.955Z" style="fill:rgb(235,235,235);"/>
    </g>
    <g transform="matrix(0.977383,0,0,0.977383,1.11194,134.915)">
        <path d="M63.462,20.955C63.462,17.659 60.785,14.982 57.488,14.982L45.541,14.982C42.244,14.982 39.568,17.659 39.568,20.955L39.568,32.902C39.568,36.199 42.244,38.876 45.541,38.876L57.488,38.876C60.785,38.876 63.462,36.199 63.462,32.902L63.462,20.955Z" style="fill:rgb(235,235,235);"/>
    </g>
    <g transform="matrix(0.977383,0,0,0.977383,1.11194,164.236)">
        <path d="M63.462,20.955C63.462,17.659 60.785,14.982 57.488,14.982L45.541,14.982C42.244,14.982 39.568,17.659 39.568,20.955L39.568,32.902C39.568,36.199 42.244,38.876 45.541,38.876L57.488,38.876C60.785,38.876 63.462,36.199 63.462,32.902L63.462,20.955Z" style="fill:rgb(235,235,235);"/>
    </g>
    <g transform="matrix(0.977383,0,0,0.977383,30.4334,-11.6927)">
        <path d="M63.462,20.955C63.462,17.659 60.785,14.982 57.488,14.982L45.541,14.982C42.244,14.982 39.568,17.659 39.568,20.955L39.568,32.902C39.568,36.199 42.244,38.876 45.541,38.876L57.488,38.876C60.785,38.876 63.462,36.199 63.462,32.902L63.462,20.955Z" style="fill:rgb(235,235,235);"/>
    </g>
    <g transform="matrix(0.977383,0,0,0.977383,30.4334,17.6288)">
        <path d="M63.462,20.955C63.462,17.659 60.785,14.982 57.488,14.982L45.541,14.982C42.244,14.982 39.568,17.659 39.568,20.955L39.568,32.902C39.568,36.199 42.244,38.876 45.541,38.876L57.488,38.876C60.785,38.876 63.462,36.199 63.462,32.902L63.462,20.955Z" style="fill:rgb(235,235,235);"/>
    </g>
    <g transform="matrix(0.977383,0,0,0.977383,30.4334,46.9503)">
        <path d="M63.462,20.955C63.462,17.659 60.785,14.982 57.488,14.982L45.541,14.982C42.244,14.982 39.568,17.659 39.568,20.955L39.568,32.902C39.568,36.199 42.244,38.876 45.541,38.876L57.488,38.876C60.785,38.876 63.462,36.199 63.462,32.902L63.462,20.955Z" style="fill:rgb(0,147,255);"/>
    </g>
    <g transform="matrix(0.977383,0,0,0.977383,30.4334,76.2718)">
        <path d="M63.462,20.955C63.462,17.659 60.785,14.982 57.488,14.982L45.541,14.982C42.244,14.982 39.568,17.659 39.568,20.955L39.568,32.902C39.568,36.199 42.244,38.876 45.541,38.876L57.488,38.876C60.785,38.876 63.462,36.199 63.462,32.902L63.462,20.955Z" style="fill:rgb(0,170,255);"/>
    </g>
    <g transform="matrix(0.977383,0,0,0.977383,30.4334,105.593)">
        <path d="M63.462,20.955C63.462,17.659 60.785,14.982 57.488,14.982L45.541,14.982C42.244,14.982 39.568,17.659 39.568,20.955L39.568,32.902C39.568,36.199 42.244,38.876 45.541,38.876L57.488,38.876C60.785,38.876 63.462,36.199 63.462,32.902L63.462,20.955Z" style="fill:rgb(0,183,255);"/>
    </g>
    <g transform="matrix(0.977383,0,0,0.977383,30.4334,134.915)">
        <path d="M63.462,20.955C63.462,17.659 60.785,14.982 57.488,14.982L45.541,14.982C42.244,14.982 39.568,17.659 39.568,20.955L39.568,32.902C39.568,36.199 42.244,38.876 45.541,38.876L57.488,38.876C60.785,38.876 63.462,36.199 63.462,32.902L63.462,20.955Z" style="fill:rgb(0,170,255);"/>
    </g>
    <g transform="matrix(0.977383,0,0,0.977383,30.4334,164.236)">
        <path d="M63.462,20.955C63.462,17.659 60.785,14.982 57.488,14.982L45.541,14.982C42.244,14.982 39.568,17.659 39.568,20.955L39.568,32.902C39.568,36.199 42.244,38.876 45.541,38.876L57.488,38.876C60.785,38.876 63.462,36.199 63.462,32.902L63.462,20.955Z" style="fill:rgb(235,235,235);"/>
    </g>
    <g transform="matrix(0.977383,0,0,0.977383,59.7549,-11.6927)">
        <path d="M63.462,20.955C63.462,17.659 60.785,14.982 57.488,14.982L45.541,14.982C42.244,14.982 39.568,17.659 39.568,20.955L39.568,32.902C39.568,36.199 42.244,38.876 45.541,38.876L57.488,38.876C60.785,38.876 63.462,36.199 63.462,32.902L63.462,20.955Z" style="fill:rgb(235,235,235);"/>
    </g>
    <g transform="matrix(0.977383,0,0,0.977383,59.7549,17.6288)">
        <path d="M63.462,20.955C63.462,17.659 60.785,14.982 57.488,14.982L45.541,14.982C42.244,14.982 39.568,17.659 39.568,20.955L39.568,32.902C39.568,36.199 42.244,38.876 45.541,38.876L57.488,38.876C60.785,38.876 63.462,36.199 63.462,32.902L63.462,20.955Z" style="fill:rgb(235,235,235);"/>
    </g>
    <g transform="matrix(0.977383,0,0,0.977383,59.7549,46.9503)">
        <path d="M63.462,20.955C63.462,17.659 60.785,14.982 57.488,14.982L45.541,14.982C42.244,14.982 39.568,17.659 39.568,20.955L39.568,32.902C39.568,36.199 42.244,38.876 45.541,38.876L57.488,38.876C60.785,38.876 63.462,36.199 63.462,32.902L63.462,20.955Z" style="fill:rgb(235,235,235);"/>
    </g>
    <g transform="matrix(0.977383,0,0,0.977383,59.7549,76.2718)">
        <path d="M63.462,20.955C63.462,17.659 60.785,14.982 57.488,14.982L45.541,14.982C42.244,14.982 39.568,17.659 39.568,20.955L39.568,32.902C39.568,36.199 42.244,38.876 45.541,38.876L57.488,38.876C60.785,38.876 63.462,36.199 63.462,32.902L63.462,20.955Z" style="fill:rgb(0,183,255);"/>
    </g>
    <g transform="matrix(0.977383,0,0,0.977383,59.7549,105.593)">
        <path d="M63.462,20.955C63.462,17.659 60.785,14.982 57.488,14.982L45.541,14.982C42.244,14.982 39.568,17.659 39.568,20.955L39.568,32.902C39.568,36.199 42.244,38.876 45.541,38.876L57.488,38.876C60.785,38.876 63.462,36.199 63.462,32.902L63.462,20.955Z" style="fill:rgb(235,235,235);"/>
    </g>
    <g transform="matrix(0.977383,0,0,0.977383,59.7549,134.915)">
        <path d="M63.462,20.955C63.462,17.659 60.785,14.982 57.488,14.982L45.541,14.982C42.244,14.982 39.568,17.659 39.568,20.955L39.568,32.902C39.568,36.199 42.244,38.876 45.541,38.876L57.488,38.876C60.785,38.876 63.462,36.199 63.462,32.902L63.462,20.955Z" style="fill:rgb(235,235,235);"/>
    </g>
    <g transform="matrix(0.977383,0,0,0.977383,59.7549,164.236)">
        <path d="M63.462,20.955C63.462,17.659 60.785,14.982 57.488,14.982L45.541,14.982C42.244,14.982 39.568,17.659 39.568,20.955L39.568,32.902C39.568,36.199 42.244,38.876 45.541,38.876L57.488,38.876C60.785,38.876 63.462,36.199 63.462,32.902L63.462,20.955Z" style="fill:rgb(235,235,235);"/>
    </g>
    <g transform="matrix(0.977383,0,0,0.977383,89.0764,-11.6927)">
        <path d="M63.462,20.955C63.462,17.659 60.785,14.982 57.488,14.982L45.541,14.982C42.244,14.982 39.568,17.659 39.568,20.955L39.568,32.902C39.568,36.199 42.244,38.876 45.541,38.876L57.488,38.876C60.785,38.876 63.462,36.199 63.462,32.902L63.462,20.955Z" style="fill:rgb(235,235,235);"/>
    </g>
    <g transform="matrix(0.977383,0,0,0.977383,89.0764,17.6288)">
        <path d="M63.462,20.955C63.462,17.659 60.785,14.982 57.488,14.982L45.541,14.982C42.244,14.982 39.568,17.659 39.568,20.955L39.568,32.902C39.568,36.199 42.244,38.876 45.541,38.876L57.488,38.876C60.785,38.876 63.462,36.199 63.462,32.902L63.462,20.955Z" style="fill:rgb(235,235,235);"/>
    </g>
    <g transform="matrix(0.977383,0,0,0.977383,89.0764,46.9503)">
        <path d="M63.462,20.955C63.462,17.659 60.785,14.982 57.488,14.982L45.541,14.982C42.244,14.982 39.568,17.659 39.568,20.955L39.568,32.902C39.568,36.199 42.244,38.876 45.541,38.876L57.488,38.876C60.785,38.876 63.462,36.199 63.462,32.902L63.462,20.955Z" style="fill:rgb(235,235,235);"/>
    </g>
    <g transform="matrix(0.977383,0,0,0.977383,89.0764,76.2718)">
        <path d="M63.462,20.955C63.462,17.659 60.785,14.982 57.488,14.982L45.541,14.982C42.244,14.982 39.568,17.659 39.568,20.955L39.568,32.902C39.568,36.199 42.244,38.876 45.541,38.876L57.488,38.876C60.785,38.876 63.462,36.199 63.462,32.902L63.462,20.955Z" style="fill:rgb(235,235,235);"/>
    </g>
    <g transform="matrix(0.977383,0,0,0.977383,89.0764,105.593)">
        <path d="M63.462,20.955C63.462,17.659 60.785,14.982 57.488,14.982L45.541,14.982C42.244,14.982 39.568,17.659 39.568,20.955L39.568,32.902C39.568,36.199 42.244,38.876 45.541,38.876L57.488,38.876C60.785,38.876 63.462,36.199 63.462,32.902L63.462,20.955Z" style="fill:rgb(0,170,255);"/>
    </g>
    <g transform="matrix(0.977383,0,0,0.977383,89.0764,134.915)">
        <path d="M63.462,20.955C63.462,17.659 60.785,14.982 57.488,14.982L45.541,14.982C42.244,14.982 39.568,17.659 39.568,20.955L39.568,32.902C39.568,36.199 42.244,38.876 45.541,38.876L57.488,38.876C60.785,38.876 63.462,36.199 63.462,32.902L63.462,20.955Z" style="fill:rgb(235,235,235);"/>
    </g>
    <g transform="matrix(0.977383,0,0,0.977383,89.0764,164.236)">
        <path d="M63.462,20.955C63.462,17.659 60.785,14.982 57.488,14.982L45.541,14.982C42.244,14.982 39.568,17.659 39.568,20.955L39.568,32.902C39.568,36.199 42.244,38.876 45.541,38.876L57.488,38.876C60.785,38.876 63.462,36.199 63.462,32.902L63.462,20.955Z" style="fill:rgb(235,235,235);"/>
    </g>
    <g transform="matrix(0.977383,0,0,0.977383,118.398,-11.6927)">
        <path d="M63.462,20.955C63.462,17.659 60.785,14.982 57.488,14.982L45.541,14.982C42.244,14.982 39.568,17.659 39.568,20.955L39.568,32.902C39.568,36.199 42.244,38.876 45.541,38.876L57.488,38.876C60.785,38.876 63.462,36.199 63.462,32.902L63.462,20.955Z" style="fill:rgb(235,235,235);"/>
    </g>
    <g transform="matrix(0.977383,0,0,0.977383,118.398,17.6288)">
        <path d="M63.462,20.955C63.462,17.659 60.785,14.982 57.488,14.982L45.541,14.982C42.244,14.982 39.568,17.659 39.568,20.955L39.568,32.902C39.568,36.199 42.244,38.876 45.541,38.876L57.488,38.876C60.785,38.876 63.462,36.199 63.462,32.902L63.462,20.955Z" style="fill:rgb(235,235,235);"/>
    </g>
    <g transform="matrix(0.977383,0,0,0.977383,118.398,46.9503)">
        <path d="M63.462,20.955C63.462,17.659 60.785,14.982 57.488,14.982L45.541,14.982C42.244,14.982 39.568,17.659 39.568,20.955L39.568,32.902C39.568,36.199 42.244,38.876 45.541,38.876L57.488,38.876C60.785,38.876 63.462,36.199 63.462,32.902L63.462,20.955Z" style="fill:rgb(235,235,235);"/>
    </g>
    <g transform="matrix(0.977383,0,0,0.977383,118.398,76.2718)">
        <path d="M63.462,20.955C63.462,17.659 60.785,14.982 57.488,14.982L45.541,14.982C42.244,14.982 39.568,17.659 39.568,20.955L39.568,32.902C39.568,36.199 42.244,38.876 45.541,38.876L57.488,38.876C60.785,38.876 63.462,36.199 63.462,32.902L63.462,20.955Z" style="fill:rgb(0,147,255);"/>
    </g>
    <g transform="matrix(0.977383,0,0,0.977383,118.398,105.593)">
        <path d="M63.462,20.955C63.462,17.659 60.785,14.982 57.488,14.982L45.541,14.982C42.244,14.982 39.568,17.659 39.568,20.955L39.568,32.902C39.568,36.199 42.244,38.876 45.541,38.876L57.488,38.876C60.785,38.876 63.462,36.199 63.462,32.902L63.462,20.955Z" style="fill:rgb(235,235,235);"/>
    </g>
    <g transform="matrix(0.977383,0,0,0.977383,118.398,134.915)">
        <path d="M63.462,20.955C63.462,17.659 60.785,14.982 57.488,14.982L45.541,14.982C42.244,14.982 39.568,17.659 39.568,20.955L39.568,32.902C39.568,36.199 42.244,38.876 45.541,38.876L57.488,38.876C60.785,38.876 63.462,36.199 63.462,32.902L63.462,20.955Z" style="fill:rgb(235,235,235);"/>
    </g>
    <g transform="matrix(0.977383,0,0,0.977383,118.398,164.236)">
        <path d="M63.462,20.955C63.462,17.659 60.785,14.982 57.488,14.982L45.541,14.982C42.244,14.982 39.568,17.659 39.568,20.955L39.568,32.902C39.568,36.199 42.244,38.876 45.541,38.876L57.488,38.876C60.785,38.876 63.462,36.199 63.462,32.902L63.462,20.955Z" style="fill:rgb(235,235,235);"/>
    </g>
    <g transform="matrix(0.977383,0,0,0.977383,147.719,-11.6927)">
        <path d="M63.462,20.955C63.462,17.659 60.785,14.982 57.488,14.982L45.541,14.982C42.244,14.982 39.568,17.659 39.568,20.955L39.568,32.902C39.568,36.199 42.244,38.876 45.541,38.876L57.488,38.876C60.785,38.876 63.462,36.199 63.462,32.902L63.462,20.955Z" style="fill:rgb(235,235,235);"/>
    </g>
    <g transform="matrix(0.977383,0,0,0.977383,147.719,17.6288)">
        <path d="M63.462,20.955C63.462,17.659 60.785,14.982 57.488,14.982L45.541,14.982C42.244,14.982 39.568,17.659 39.568,20.955L39.568,32.902C39.568,36.199 42.244,38.876 45.541,38.876L57.488,38.876C60.785,38.876 63.462,36.199 63.462,32.902L63.462,20.955Z" style="fill:rgb(235,235,235);"/>
    </g>
    <g transform="matrix(0.977383,0,0,0.977383,147.719,46.9503)">
        <path d="M63.462,20.955C63.462,17.659 60.785,14.982 57.488,14.982L45.541,14.982C42.244,14.982 39.568,17.659 39.568,20.955L39.568,32.902C39.568,36.199 42.244,38.876 45.541,38.876L57.488,38.876C60.785,38.876 63.462,36.199 63.462,32.902L63.462,20.955Z" style="fill:rgb(0,183,255);"/>
    </g>
    <g transform="matrix(0.977383,0,0,0.977383,147.719,76.2718)">
        <path d="M63.462,20.955C63.462,17.659 60.785,14.982 57.488,14.982L45.541,14.982C42.244,14.982 39.568,17.659 39.568,20.955L39.568,32.902C39.568,36.199 42.244,38.876 45.541,38.876L57.488,38.876C60.785,38.876 63.462,36.199 63.462,32.902L63.462,20.955Z" style="fill:rgb(0,170,255);"/>
    </g>
    <g transform="matrix(0.977383,0,0,0.977383,147.719,105.593)">
        <path d="M63.462,20.955C63.462,17.659 60.785,14.982 57.488,14.982L45.541,14.982C42.244,14.982 39.568,17.659 39.568,20.955L39.568,32.902C39.568,36.199 42.244,38.876 45.541,38.876L57.488,38.876C60.785,38.876 63.462,36.199 63.462,32.902L63.462,20.955Z" style="fill:rgb(0,170,255);"/>
    </g>
    <g transform="matrix(0.977383,0,0,0.977383,147.719,134.915)">
        <path d="M63.462,20.955C63.462,17.659 60.785,14.982 57.488,14.982L45.541,14.982C42.244,14.982 39.568,17.659 39.568,20.955L39.568,32.902C39.568,36.199 42.244,38.876 45.541,38.876L57.488,38.876C60.785,38.876 63.462,36.199 63.462,32.902L63.462,20.955Z" style="fill:rgb(0,147,255);"/>
    </g>
    <g transform="matrix(0.977383,0,0,0.977383,147.719,164.236)">
        <path d="M63.462,20.955C63.462,17.659 60.785,14.982 57.488,14.982L45.541,14.982C42.244,14.982 39.568,17.659 39.568,20.955L39.568,32.902C39.568,36.199 42.244,38.876 45.541,38.876L57.488,38.876C60.785,38.876 63.462,36.199 63.462,32.902L63.462,20.955Z" style="fill:rgb(235,235,235);"/>
    </g>
    <g transform="matrix(0.977383,0,0,0.977383,177.041,-11.6927)">
        <path d="M63.462,20.955C63.462,17.659 60.785,14.982 57.488,14.982L45.541,14.982C42.244,14.982 39.568,17.659 39.568,20.955L39.568,32.902C39.568,36.199 42.244,38.876 45.541,38.876L57.488,38.876C60.785,38.876 63.462,36.199 63.462,32.902L63.462,20.955Z" style="fill:rgb(235,235,235);"/>
    </g>
    <g transform="matrix(0.977383,0,0,0.977383,177.041,17.6288)">
        <path d="M63.462,20.955C63.462,17.659 60.785,14.982 57.488,14.982L45.541,14.982C42.244,14.982 39.568,17.659 39.568,20.955L39.568,32.902C39.568,36.199 42.244,38.876 45.541,38.876L57.488,38.876C60.785,38.876 63.462,36.199 63.462,32.902L63.462,20.955Z" style="fill:rgb(235,235,235);"/>
    </g>
    <g transform="matrix(0.977383,0,0,0.977383,177.041,46.9503)">
        <path d="M63.462,20.955C63.462,17.659 60.785,14.982 57.488,14.982L45.541,14.982C42.244,14.982 39.568,17.659 39.568,20.955L39.568,32.902C39.568,36.199 42.244,38.876 45.541,38.876L57.488,38.876C60.785,38.876 63.462,36.199 63.462,32.902L63.462,20.955Z" style="fill:rgb(235,235,235);"/>
    </g>
    <g transform="matrix(0.977383,0,0,0.977383,177.041,76.2718)">
        <path d="M63.462,20.955C63.462,17.659 60.785,14.982 57.488,14.982L45.541,14.982C42.244,14.982 39.568,17.659 39.568,20.955L39.568,32.902C39.568,36.199 42.244,38.876 45.541,38.876L57.488,38.876C60.785,38.876 63.462,36.199 63.462,32.902L63.462,20.955Z" style="fill:rgb(235,235,235);"/>
    </g>
    <g transform="matrix(0.977383,0,0,0.977383,177.041,105.593)">
        <path d="M63.462,20.955C63.462,17.659 60.785,14.982 57.488,14.982L45.541,14.982C42.244,14.982 39.568,17.659 39.568,20.955L39.568,32.902C39.568,36.199 42.244,38.876 45.541,38.876L57.488,38.876C60.785,38.876 63.462,36.199 63.462,32.902L63.462,20.955Z" style="fill:rgb(235,235,235);"/>
    </g>
    <g transform="matrix(0.977383,0,0,0.977383,177.041,134.915)">
        <path d="M63.462,20.955C63.462,17.659 60.785,14.982 57.488,14.982L45.541,14.982C42.244,14.982 39.568,17.659 39.568,20.955L39.568,32.902C39.568,36.199 42.244,38.876 45.541,38.876L57.488,38.876C60.785,38.876 63.462,36.199 63.462,32.902L63.462,20.955Z" style="fill:rgb(235,235,235);"/>
    </g>
    <g transform="matrix(0.977383,0,0,0.977383,177.041,164.236)">
        <path d="M63.462,20.955C63.462,17.659 60.785,14.982 57.488,14.982L45.541,14.982C42.244,14.982 39.568,17.659 39.568,20.955L39.568,32.902C39.568,36.199 42.244,38.876 45.541,38.876L57.488,38.876C60.785,38.876 63.462,36.199 63.462,32.902L63.462,20.955Z" style="fill:rgb(235,235,235);"/>
    </g>
    <g transform="matrix(0.977383,0,0,0.977383,206.362,-11.6927)">
        <path d="M63.462,20.955C63.462,17.659 60.785,14.982 57.488,14.982L45.541,14.982C42.244,14.982 39.568,17.659 39.568,20.955L39.568,32.902C39.568,36.199 42.244,38.876 45.541,38.876L57.488,38.876C60.785,38.876 63.462,36.199 63.462,32.902L63.462,20.955Z" style="fill:rgb(235,235,235);"/>
    </g>
    <g transform="matrix(0.977383,0,0,0.977383,206.362,17.6288)">
        <path d="M63.462,20.955C63.462,17.659 60.785,14.982 57.488,14.982L45.541,14.982C42.244,14.982 39.568,17.659 39.568,20.955L39.568,32.902C39.568,36.199 42.244,38.876 45.541,38.876L57.488,38.876C60.785,38.876 63.462,36.199 63.462,32.902L63.462,20.955Z" style="fill:rgb(235,235,235);"/>
    </g>
    <g transform="matrix(0.977383,0,0,0.977383,206.362,46.9503)">
        <path d="M63.462,20.955C63.462,17.659 60.785,14.982 57.488,14.982L45.541,14.982C42.244,14.982 39.568,17.659 39.568,20.955L39.568,32.902C39.568,36.199 42.244,38.876 45.541,38.876L57.488,38.876C60.785,38.876 63.462,36.199 63.462,32.902L63.462,20.955Z" style="fill:rgb(235,235,235);"/>
    </g>
    <g transform="matrix(0.977383,0,0,0.977383,206.362,76.2718)">
        <path d="M63.462,20.955C63.462,17.659 60.785,14.982 57.488,14.982L45.541,14.982C42.244,14.982 39.568,17.659 39.568,20.955L39.568,32.902C39.568,36.199 42.244,38.876 45.541,38.876L57.488,38.876C60.785,38.876 63.462,36.199 63.462,32.902L63.462,20.955Z" style="fill:rgb(0,183,255);"/>
    </g>
    <g transform="matrix(0.977383,0,0,0.977383,206.362,105.593)">
        <path d="M63.462,20.955C63.462,17.659 60.785,14.982 57.488,14.982L45.541,14.982C42.244,14.982 39.568,17.659 39.568,20.955L39.568,32.902C39.568,36.199 42.244,38.876 45.541,38.876L57.488,38.876C60.785,38.876 63.462,36.199 63.462,32.902L63.462,20.955Z" style="fill:rgb(0,170,255);"/>
    </g>
    <g transform="matrix(0.977383,0,0,0.977383,206.362,134.915)">
        <path d="M63.462,20.955C63.462,17.659 60.785,14.982 57.488,14.982L45.541,14.982C42.244,14.982 39.568,17.659 39.568,20.955L39.568,32.902C39.568,36.199 42.244,38.876 45.541,38.876L57.488,38.876C60.785,38.876 63.462,36.199 63.462,32.902L63.462,20.955Z" style="fill:rgb(0,183,255);"/>
    </g>
    <g transform="matrix(0.977383,0,0,0.977383,206.362,164.236)">
        <path d="M63.462,20.955C63.462,17.659 60.785,14.982 57.488,14.982L45.541,14.982C42.244,14.982 39.568,17.659 39.568,20.955L39.568,32.902C39.568,36.199 42.244,38.876 45.541,38.876L57.488,38.876C60.785,38.876 63.462,36.199 63.462,32.902L63.462,20.955Z" style="fill:rgb(235,235,235);"/>
    </g>
    <g transform="matrix(0.977383,0,0,0.977383,235.684,-11.6927)">
        <path d="M63.462,20.955C63.462,17.659 60.785,14.982 57.488,14.982L45.541,14.982C42.244,14.982 39.568,17.659 39.568,20.955L39.568,32.902C39.568,36.199 42.244,38.876 45.541,38.876L57.488,38.876C60.785,38.876 63.462,36.199 63.462,32.902L63.462,20.955Z" style="fill:rgb(235,235,235);"/>
    </g>
    <g transform="matrix(0.977383,0,0,0.977383,235.684,17.6288)">
        <path d="M63.462,20.955C63.462,17.659 60.785,14.982 57.488,14.982L45.541,14.982C42.244,14.982 39.568,17.659 39.568,20.955L39.568,32.902C39.568,36.199 42.244,38.876 45.541,38.876L57.488,38.876C60.785,38.876 63.462,36.199 63.462,32.902L63.462,20.955Z" style="fill:rgb(235,235,235);"/>
    </g>
    <g transform="matrix(0.977383,0,0,0.977383,235.684,46.9503)">
        <path d="M63.462,20.955C63.462,17.659 60.785,14.982 57.488,14.982L45.541,14.982C42.244,14.982 39.568,17.659 39.568,20.955L39.568,32.902C39.568,36.199 42.244,38.876 45.541,38.876L57.488,38.876C60.785,38.876 63.462,36.199 63.462,32.902L63.462,20.955Z" style="fill:rgb(0,170,255);"/>
    </g>
    <g transform="matrix(0.977383,0,0,0.977383,235.684,76.2718)">
        <path d="M63.462,20.955C63.462,17.659 60.785,14.982 57.488,14.982L45.541,14.982C42.244,14.982 39.568,17.659 39.568,20.955L39.568,32.902C39.568,36.199 42.244,38.876 45.541,38.876L57.488,38.876C60.785,38.876 63.462,36.199 63.462,32.902L63.462,20.955Z" style="fill:rgb(235,235,235);"/>
    </g>
    <g transform="matrix(0.977383,0,0,0.977383,235.684,105.593)">
        <path d="M63.462,20.955C63.462,17.659 60.785,14.982 57.488,14.982L45.541,14.982C42.244,14.982 39.568,17.659 39.568,20.955L39.568,32.902C39.568,36.199 42.244,38.876 45.541,38.876L57.488,38.876C60.785,38.876 63.462,36.199 63.462,32.902L63.462,20.955Z" style="fill:rgb(0,170,255);"/>
    </g>
    <g transform="matrix(0.977383,0,0,0.977383,235.684,134.915)">
        <path d="M63.462,20.955C63.462,17.659 60.785,14.982 57.488,14.982L45.541,14.982C42.244,14.982 39.568,17.659 39.568,20.955L39.568,32.902C39.568,36.199 42.244,38.876 45.541,38.876L57.488,38.876C60.785,38.876 63.462,36.199 63.462,32.902L63.462,20.955Z" style="fill:rgb(235,235,235);"/>
    </g>
    <g transform="matrix(0.977383,0,0,0.977383,235.684,164.236)">
        <path d="M63.462,20.955C63.462,17.659 60.785,14.982 57.488,14.982L45.541,14.982C42.244,14.982 39.568,17.659 39.568,20.955L39.568,32.902C39.568,36.199 42.244,38.876 45.541,38.876L57.488,38.876C60.785,38.876 63.462,36.199 63.462,32.902L63.462,20.955Z" style="fill:rgb(235,235,235);"/>
    </g>
    <g transform="matrix(0.977383,0,0,0.977383,265.005,-11.6927)">
        <path d="M63.462,20.955C63.462,17.659 60.785,14.982 57.488,14.982L45.541,14.982C42.244,14.982 39.568,17.659 39.568,20.955L39.568,32.902C39.568,36.199 42.244,38.876 45.541,38.876L57.488,38.876C60.785,38.876 63.462,36.199 63.462,32.902L63.462,20.955Z" style="fill:rgb(235,235,235);"/>
    </g>
    <g transform="matrix(0.977383,0,0,0.977383,265.005,17.6288)">
        <path d="M63.462,20.955C63.462,17.659 60.785,14.982 57.488,14.982L45.541,14.982C42.244,14.982 39.568,17.659 39.568,20.955L39.568,32.902C39.568,36.199 42.244,38.876 45.541,38.876L57.488,38.876C60.785,38.876 63.462,36.199 63.462,32.902L63.462,20.955Z" style="fill:rgb(235,235,235);"/>
    </g>
    <g transform="matrix(0.977383,0,0,0.977383,265.005,46.9503)">
        <path d="M63.462,20.955C63.462,17.659 60.785,14.982 57.488,14.982L45.541,14.982C42.244,14.982 39.568,17.659 39.568,20.955L39.568,32.902C39.568,36.199 42.244,38.876 45.541,38.876L57.488,38.876C60.785,38.876 63.462,36.199 63.462,32.902L63.462,20.955Z" style="fill:rgb(235,235,235);"/>
    </g>
    <g transform="matrix(0.977383,0,0,0.977383,265.005,76.2718)">
        <path d="M63.462,20.955C63.462,17.659 60.785,14.982 57.488,14.982L45.541,14.982C42.244,14.982 39.568,17.659 39.568,20.955L39.568,32.902C39.568,36.199 42.244,38.876 45.541,38.876L57.488,38.876C60.785,38.876 63.462,36.199 63.462,32.902L63.462,20.955Z" style="fill:rgb(0,147,255);"/>
    </g>
    <g transform="matrix(0.977383,0,0,0.977383,265.005,105.593)">
        <path d="M63.462,20.955C63.462,17.659 60.785,14.982 57.488,14.982L45.541,14.982C42.244,14.982 39.568,17.659 39.568,20.955L39.568,32.902C39.568,36.199 42.244,38.876 45.541,38.876L57.488,38.876C60.785,38.876 63.462,36.199 63.462,32.902L63.462,20.955Z" style="fill:rgb(0,183,255);"/>
    </g>
    <g transform="matrix(0.977383,0,0,0.977383,265.005,134.915)">
        <path d="M63.462,20.955C63.462,17.659 60.785,14.982 57.488,14.982L45.541,14.982C42.244,14.982 39.568,17.659 39.568,20.955L39.568,32.902C39.568,36.199 42.244,38.876 45.541,38.876L57.488,38.876C60.785,38.876 63.462,36.199 63.462,32.902L63.462,20.955Z" style="fill:rgb(0,147,255);"/>
    </g>
    <g transform="matrix(0.977383,0,0,0.977383,265.005,164.236)">
        <path d="M63.462,20.955C63.462,17.659 60.785,14.982 57.488,14.982L45.541,14.982C42.244,14.982 39.568,17.659 39.568,20.955L39.568,32.902C39.568,36.199 42.244,38.876 45.541,38.876L57.488,38.876C60.785,38.876 63.462,36.199 63.462,32.902L63.462,20.955Z" style="fill:rgb(235,235,235);"/>
    </g>
    <g transform="matrix(0.977383,0,0,0.977383,294.327,-11.6927)">
        <path d="M63.462,20.955C63.462,17.659 60.785,14.982 57.488,14.982L45.541,14.982C42.244,14.982 39.568,17.659 39.568,20.955L39.568,32.902C39.568,36.199 42.244,38.876 45.541,38.876L57.488,38.876C60.785,38.876 63.462,36.199 63.462,32.902L63.462,20.955Z" style="fill:rgb(235,235,235);"/>
    </g>
    <g transform="matrix(0.977383,0,0,0.977383,294.327,17.6288)">
        <path d="M63.462,20.955C63.462,17.659 60.785,14.982 57.488,14.982L45.541,14.982C42.244,14.982 39.568,17.659 39.568,20.955L39.568,32.902C39.568,36.199 42.244,38.876 45.541,38.876L57.488,38.876C60.785,38.876 63.462,36.199 63.462,32.902L63.462,20.955Z" style="fill:rgb(235,235,235);"/>
    </g>
    <g transform="matrix(0.977383,0,0,0.977383,294.327,46.9503)">
        <path d="M63.462,20.955C63.462,17.659 60.785,14.982 57.488,14.982L45.541,14.982C42.244,14.982 39.568,17.659 39.568,20.955L39.568,32.902C39.568,36.199 42.244,38.876 45.541,38.876L57.488,38.876C60.785,38.876 63.462,36.199 63.462,32.902L63.462,20.955Z" style="fill:rgb(235,235,235);"/>
    </g>
    <g transform="matrix(0.977383,0,0,0.977383,294.327,76.2718)">
        <path d="M63.462,20.955C63.462,17.659 60.785,14.982 57.488,14.982L45.541,14.982C42.244,14.982 39.568,17.659 39.568,20.955L39.568,32.902C39.568,36.199 42.244,38.876 45.541,38.876L57.488,38.876C60.785,38.876 63.462,36.199 63.462,32.902L63.462,20.955Z" style="fill:rgb(235,235,235);"/>
    </g>
    <g transform="matrix(0.977383,0,0,0.977383,294.327,105.593)">
        <path d="M63.462,20.955C63.462,17.659 60.785,14.982 57.488,14.982L45.541,14.982C42.244,14.982 39.568,17.659 39.568,20.955L39.568,32.902C39.568,36.199 42.244,38.876 45.541,38.876L57.488,38.876C60.785,38.876 63.462,36.199 63.462,32.902L63.462,20.955Z" style="fill:rgb(235,235,235);"/>
    </g>
    <g transform="matrix(0.977383,0,0,0.977383,294.327,134.915)">
        <path d="M63.462,20.955C63.462,17.659 60.785,14.982 57.488,14.982L45.541,14.982C42.244,14.982 39.568,17.659 39.568,20.955L39.568,32.902C39.568,36.199 42.244,38.876 45.541,38.876L57.488,38.876C60.785,38.876 63.462,36.199 63.462,32.902L63.462,20.955Z" style="fill:rgb(235,235,235);"/>
    </g>
    <g transform="matrix(0.977383,0,0,0.977383,294.327,164.236)">
        <path d="M63.462,20.955C63.462,17.659 60.785,14.982 57.488,14.982L45.541,14.982C42.244,14.982 39.568,17.659 39.568,20.955L39.568,32.902C39.568,36.199 42.244,38.876 45.541,38.876L57.488,38.876C60.785,38.876 63.462,36.199 63.462,32.902L63.462,20.955Z" style="fill:rgb(235,235,235);"/>
    </g>
    <g transform="matrix(0.977383,0,0,0.977383,323.648,-11.6927)">
        <path d="M63.462,20.955C63.462,17.659 60.785,14.982 57.488,14.982L45.541,14.982C42.244,14.982 39.568,17.659 39.568,20.955L39.568,32.902C39.568,36.199 42.244,38.876 45.541,38.876L57.488,38.876C60.785,38.876 63.462,36.199 63.462,32.902L63.462,20.955Z" style="fill:rgb(235,235,235);"/>
    </g>
    <g transform="matrix(0.977383,0,0,0.977383,323.648,17.6288)">
        <path d="M63.462,20.955C63.462,17.659 60.785,14.982 57.488,14.982L45.541,14.982C42.244,14.982 39.568,17.659 39.568,20.955L39.568,32.902C39.568,36.199 42.244,38.876 45.541,38.876L57.488,38.876C60.785,38.876 63.462,36.199 63.462,32.902L63.462,20.955Z" style="fill:rgb(235,235,235);"/>
    </g>
    <g transform="matrix(0.977383,0,0,0.977383,323.648,46.9503)">
        <path d="M63.462,20.955C63.462,17.659 60.785,14.982 57.488,14.982L45.541,14.982C42.244,14.982 39.568,17.659 39.568,20.955L39.568,32.902C39.568,36.199 42.244,38.876 45.541,38.876L57.488,38.876C60.785,38.876 63.462,36.199 63.462,32.902L63.462,20.955Z" style="fill:rgb(0,183,255);"/>
    </g>
    <g transform="matrix(0.977383,0,0,0.977383,323.648,76.2718)">
        <path d="M63.462,20.955C63.462,17.659 60.785,14.982 57.488,14.982L45.541,14.982C42.244,14.982 39.568,17.659 39.568,20.955L39.568,32.902C39.568,36.199 42.244,38.876 45.541,38.876L57.488,38.876C60.785,38.876 63.462,36.199 63.462,32.902L63.462,20.955Z" style="fill:rgb(0,170,255);"/>
    </g>
    <g transform="matrix(0.977383,0,0,0.977383,323.648,105.593)">
        <path d="M63.462,20.955C63.462,17.659 60.785,14.982 57.488,14.982L45.541,14.982C42.244,14.982 39.568,17.659 39.568,20.955L39.568,32.902C39.568,36.199 42.244,38.876 45.541,38.876L57.488,38.876C60.785,38.876 63.462,36.199 63.462,32.902L63.462,20.955Z" style="fill:rgb(235,235,235);"/>
    </g>
    <g transform="matrix(0.977383,0,0,0.977383,323.648,134.915)">
        <path d="M63.462,20.955C63.462,17.659 60.785,14.982 57.488,14.982L45.541,14.982C42.244,14.982 39.568,17.659 39.568,20.955L39.568,32.902C39.568,36.199 42.244,38.876 45.541,38.876L57.488,38.876C60.785,38.876 63.462,36.199 63.462,32.902L63.462,20.955Z" style="fill:rgb(235,235,235);"/>
    </g>
    <g transform="matrix(0.977383,0,0,0.977383,323.648,164.236)">
        <path d="M63.462,20.955C63.462,17.659 60.785,14.982 57.488,14.982L45.541,14.982C42.244,14.982 39.568,17.659 39.568,20.955L39.568,32.902C39.568,36.199 42.244,38.876 45.541,38.876L57.488,38.876C60.785,38.876 63.462,36.199 63.462,32.902L63.462,20.955Z" style="fill:rgb(235,235,235);"/>
    </g>
    <g transform="matrix(0.977383,0,0,0.977383,352.97,-11.6927)">
        <path d="M63.462,20.955C63.462,17.659 60.785,14.982 57.488,14.982L45.541,14.982C42.244,14.982 39.568,17.659 39.568,20.955L39.568,32.902C39.568,36.199 42.244,38.876 45.541,38.876L57.488,38.876C60.785,38.876 63.462,36.199 63.462,32.902L63.462,20.955Z" style="fill:rgb(235,235,235);"/>
    </g>
    <g transform="matrix(0.977383,0,0,0.977383,352.97,17.6288)">
        <path d="M63.462,20.955C63.462,17.659 60.785,14.982 57.488,14.982L45.541,14.982C42.244,14.982 39.568,17.659 39.568,20.955L39.568,32.902C39.568,36.199 42.244,38.876 45.541,38.876L57.488,38.876C60.785,38.876 63.462,36.199 63.462,32.902L63.462,20.955Z" style="fill:rgb(235,235,235);"/>
    </g>
    <g transform="matrix(0.977383,0,0,0.977383,352.97,46.9503)">
        <path d="M63.462,20.955C63.462,17.659 60.785,14.982 57.488,14.982L45.541,14.982C42.244,14.982 39.568,17.659 39.568,20.955L39.568,32.902C39.568,36.199 42.244,38.876 45.541,38.876L57.488,38.876C60.785,38.876 63.462,36.199 63.462,32.902L63.462,20.955Z" style="fill:rgb(235,235,235);"/>
    </g>
    <g transform="matrix(0.977383,0,0,0.977383,352.97,76.2718)">
        <path d="M63.462,20.955C63.462,17.659 60.785,14.982 57.488,14.982L45.541,14.982C42.244,14.982 39.568,17.659 39.568,20.955L39.568,32.902C39.568,36.199 42.244,38.876 45.541,38.876L57.488,38.876C60.785,38.876 63.462,36.199 63.462,32.902L63.462,20.955Z" style="fill:rgb(235,235,235);"/>
    </g>
    <g transform="matrix(0.977383,0,0,0.977383,352.97,105.593)">
        <path d="M63.462,20.955C63.462,17.659 60.785,14.982 57.488,14.982L45.541,14.982C42.244,14.982 39.568,17.659 39.568,20.955L39.568,32.902C39.568,36.199 42.244,38.876 45.541,38.876L57.488,38.876C60.785,38.876 63.462,36.199 63.462,32.902L63.462,20.955Z" style="fill:rgb(0,147,255);"/>
    </g>
    <g transform="matrix(0.977383,0,0,0.977383,352.97,134.915)">
        <path d="M63.462,20.955C63.462,17.659 60.785,14.982 57.488,14.982L45.541,14.982C42.244,14.982 39.568,17.659 39.568,20.955L39.568,32.902C39.568,36.199 42.244,38.876 45.541,38.876L57.488,38.876C60.785,38.876 63.462,36.199 63.462,32.902L63.462,20.955Z" style="fill:rgb(0,183,255);"/>
    </g>
    <g transform="matrix(0.977383,0,0,0.977383,352.97,164.236)">
        <path d="M63.462,20.955C63.462,17.659 60.785,14.982 57.488,14.982L45.541,14.982C42.244,14.982 39.568,17.659 39.568,20.955L39.568,32.902C39.568,36.199 42.244,38.876 45.541,38.876L57.488,38.876C60.785,38.876 63.462,36.199 63.462,32.902L63.462,20.955Z" style="fill:rgb(235,235,235);"/>
    </g>
    <g transform="matrix(0.977383,0,0,0.977383,382.291,-11.6927)">
        <path d="M63.462,20.955C63.462,17.659 60.785,14.982 57.488,14.982L45.541,14.982C42.244,14.982 39.568,17.659 39.568,20.955L39.568,32.902C39.568,36.199 42.244,38.876 45.541,38.876L57.488,38.876C60.785,38.876 63.462,36.199 63.462,32.902L63.462,20.955Z" style="fill:rgb(235,235,235);"/>
    </g>
    <g transform="matrix(0.977383,0,0,0.977383,382.291,17.6288)">
        <path d="M63.462,20.955C63.462,17.659 60.785,14.982 57.488,14.982L45.541,14.982C42.244,14.982 39.568,17.659 39.568,20.955L39.568,32.902C39.568,36.199 42.244,38.876 45.541,38.876L57.488,38.876C60.785,38.876 63.462,36.199 63.462,32.902L63.462,20.955Z" style="fill:rgb(235,235,235);"/>
    </g>
    <g transform="matrix(0.977383,0,0,0.977383,382.291,46.9503)">
        <path d="M63.462,20.955C63.462,17.659 60.785,14.982 57.488,14.982L45.541,14.982C42.244,14.982 39.568,17.659 39.568,20.955L39.568,32.902C39.568,36.199 42.244,38.876 45.541,38.876L57.488,38.876C60.785,38.876 63.462,36.199 63.462,32.902L63.462,20.955Z" style="fill:rgb(0,170,255);"/>
    </g>
    <g transform="matrix(0.977383,0,0,0.977383,382.291,76.2718)">
        <path d="M63.462,20.955C63.462,17.659 60.785,14.982 57.488,14.982L45.541,14.982C42.244,14.982 39.568,17.659 39.568,20.955L39.568,32.902C39.568,36.199 42.244,38.876 45.541,38.876L57.488,38.876C60.785,38.876 63.462,36.199 63.462,32.902L63.462,20.955Z" style="fill:rgb(0,183,255);"/>
    </g>
    <g transform="matrix(0.977383,0,0,0.977383,382.291,105.593)">
        <path d="M63.462,20.955C63.462,17.659 60.785,14.982 57.488,14.982L45.541,14.982C42.244,14.982 39.568,17.659 39.568,20.955L39.568,32.902C39.568,36.199 42.244,38.876 45.541,38.876L57.488,38.876C60.785,38.876 63.462,36.199 63.462,32.902L63.462,20.955Z" style="fill:rgb(235,235,235);"/>
    </g>
    <g transform="matrix(0.977383,0,0,0.977383,382.291,134.915)">
        <path d="M63.462,20.955C63.462,17.659 60.785,14.982 57.488,14.982L45.541,14.982C42.244,14.982 39.568,17.659 39.568,20.955L39.568,32.902C39.568,36.199 42.244,38.876 45.541,38.876L57.488,38.876C60.785,38.876 63.462,36.199 63.462,32.902L63.462,20.955Z" style="fill:rgb(235,235,235);"/>
    </g>
    <g transform="matrix(0.977383,0,0,0.977383,382.291,164.236)">
        <path d="M63.462,20.955C63.462,17.659 60.785,14.982 57.488,14.982L45.541,14.982C42.244,14.982 39.568,17.659 39.568,20.955L39.568,32.902C39.568,36.199 42.244,38.876 45.541,38.876L57.488,38.876C60.785,38.876 63.462,36.199 63.462,32.902L63.462,20.955Z" style="fill:rgb(235,235,235);"/>
    </g>
    <g transform="matrix(0.977383,0,0,0.977383,411.613,-11.6927)">
        <path d="M63.462,20.955C63.462,17.659 60.785,14.982 57.488,14.982L45.541,14.982C42.244,14.982 39.568,17.659 39.568,20.955L39.568,32.902C39.568,36.199 42.244,38.876 45.541,38.876L57.488,38.876C60.785,38.876 63.462,36.199 63.462,32.902L63.462,20.955Z" style="fill:rgb(235,235,235);"/>
    </g>
    <g transform="matrix(0.977383,0,0,0.977383,411.613,17.6288)">
        <path d="M63.462,20.955C63.462,17.659 60.785,14.982 57.488,14.982L45.541,14.982C42.244,14.982 39.568,17.659 39.568,20.955L39.568,32.902C39.568,36.199 42.244,38.876 45.541,38.876L57.488,38.876C60.785,38.876 63.462,36.199 63.462,32.902L63.462,20.955Z" style="fill:rgb(235,235,235);"/>
    </g>
    <g transform="matrix(0.977383,0,0,0.977383,411.613,46.9503)">
        <path d="M63.462,20.955C63.462,17.659 60.785,14.982 57.488,14.982L45.541,14.982C42.244,14.982 39.568,17.659 39.568,20.955L39.568,32.902C39.568,36.199 42.244,38.876 45.541,38.876L57.488,38.876C60.785,38.876 63.462,36.199 63.462,32.902L63.462,20.955Z" style="fill:rgb(235,235,235);"/>
    </g>
    <g transform="matrix(0.977383,0,0,0.977383,411.613,76.2718)">
        <path d="M63.462,20.955C63.462,17.659 60.785,14.982 57.488,14.982L45.541,14.982C42.244,14.982 39.568,17.659 39.568,20.955L39.568,32.902C39.568,36.199 42.244,38.876 45.541,38.876L57.488,38.876C60.785,38.876 63.462,36.199 63.462,32.902L63.462,20.955Z" style="fill:rgb(235,235,235);"/>
    </g>
    <g transform="matrix(0.977383,0,0,0.977383,411.613,105.593)">
        <path d="M63.462,20.955C63.462,17.659 60.785,14.982 57.488,14.982L45.541,14.982C42.244,14.982 39.568,17.659 39.568,20.955L39.568,32.902C39.568,36.199 42.244,38.876 45.541,38.876L57.488,38.876C60.785,38.876 63.462,36.199 63.462,32.902L63.462,20.955Z" style="fill:rgb(235,235,235);"/>
    </g>
    <g transform="matrix(0.977383,0,0,0.977383,411.613,134.915)">
        <path d="M63.462,20.955C63.462,17.659 60.785,14.982 57.488,14.982L45.541,14.982C42.244,14.982 39.568,17.659 39.568,20.955L39.568,32.902C39.568,36.199 42.244,38.876 45.541,38.876L57.488,38.876C60.785,38.876 63.462,36.199 63.462,32.902L63.462,20.955Z" style="fill:rgb(235,235,235);"/>
    </g>
    <g transform="matrix(0.977383,0,0,0.977383,411.613,164.236)">
        <path d="M63.462,20.955C63.462,17.659 60.785,14.982 57.488,14.982L45.541,14.982C42.244,14.982 39.568,17.659 39.568,20.955L39.568,32.902C39.568,36.199 42.244,38.876 45.541,38.876L57.488,38.876C60.785,38.876 63.462,36.199 63.462,32.902L63.462,20.955Z" style="fill:rgb(235,235,235);"/>
    </g>
    <g transform="matrix(0.977383,0,0,0.977383,440.934,-11.6927)">
        <path d="M63.462,20.955C63.462,17.659 60.785,14.982 57.488,14.982L45.541,14.982C42.244,14.982 39.568,17.659 39.568,20.955L39.568,32.902C39.568,36.199 42.244,38.876 45.541,38.876L57.488,38.876C60.785,38.876 63.462,36.199 63.462,32.902L63.462,20.955Z" style="fill:rgb(235,235,235);"/>
    </g>
    <g transform="matrix(0.977383,0,0,0.977383,440.934,17.6288)">
        <path d="M63.462,20.955C63.462,17.659 60.785,14.982 57.488,14.982L45.541,14.982C42.244,14.982 39.568,17.659 39.568,20.955L39.568,32.902C39.568,36.199 42.244,38.876 45.541,38.876L57.488,38.876C60.785,38.876 63.462,36.199 63.462,32.902L63.462,20.955Z" style="fill:rgb(235,235,235);"/>
    </g>
    <g transform="matrix(0.977383,0,0,0.977383,440.934,46.9503)">
        <path d="M63.462,20.955C63.462,17.659 60.785,14.982 57.488,14.982L45.541,14.982C42.244,14.982 39.568,17.659 39.568,20.955L39.568,32.902C39.568,36.199 42.244,38.876 45.541,38.876L57.488,38.876C60.785,38.876 63.462,36.199 63.462,32.902L63.462,20.955Z" style="fill:rgb(235,235,235);"/>
    </g>
    <g transform="matrix(0.977383,0,0,0.977383,440.934,76.2718)">
        <path d="M63.462,20.955C63.462,17.659 60.785,14.982 57.488,14.982L45.541,14.982C42.244,14.982 39.568,17.659 39.568,20.955L39.568,32.902C39.568,36.199 42.244,38.876 45.541,38.876L57.488,38.876C60.785,38.876 63.462,36.199 63.462,32.902L63.462,20.955Z" style="fill:rgb(0,170,255);"/>
    </g>
    <g transform="matrix(0.977383,0,0,0.977383,440.934,105.593)">
        <path d="M63.462,20.955C63.462,17.659 60.785,14.982 57.488,14.982L45.541,14.982C42.244,14.982 39.568,17.659 39.568,20.955L39.568,32.902C39.568,36.199 42.244,38.876 45.541,38.876L57.488,38.876C60.785,38.876 63.462,36.199 63.462,32.902L63.462,20.955Z" style="fill:rgb(0,147,255);"/>
    </g>
    <g transform="matrix(0.977383,0,0,0.977383,440.934,134.915)">
        <path d="M63.462,20.955C63.462,17.659 60.785,14.982 57.488,14.982L45.541,14.982C42.244,14.982 39.568,17.659 39.568,20.955L39.568,32.902C39.568,36.199 42.244,38.876 45.541,38.876L57.488,38.876C60.785,38.876 63.462,36.199 63.462,32.902L63.462,20.955Z" style="fill:rgb(0,170,255);"/>
    </g>
    <g transform="matrix(0.977383,0,0,0.977383,440.934,164.236)">
        <path d="M63.462,20.955C63.462,17.659 60.785,14.982 57.488,14.982L45.541,14.982C42.244,14.982 39.568,17.659 39.568,20.955L39.568,32.902C39.568,36.199 42.244,38.876 45.541,38.876L57.488,38.876C60.785,38.876 63.462,36.199 63.462,32.902L63.462,20.955Z" style="fill:rgb(235,235,235);"/>
    </g>
    <g transform="matrix(0.977383,0,0,0.977383,470.256,-11.6927)">
        <path d="M63.462,20.955C63.462,17.659 60.785,14.982 57.488,14.982L45.541,14.982C42.244,14.982 39.568,17.659 39.568,20.955L39.568,32.902C39.568,36.199 42.244,38.876 45.541,38.876L57.488,38.876C60.785,38.876 63.462,36.199 63.462,32.902L63.462,20.955Z" style="fill:rgb(235,235,235);"/>
    </g>
    <g transform="matrix(0.977383,0,0,0.977383,470.256,17.6288)">
        <path d="M63.462,20.955C63.462,17.659 60.785,14.982 57.488,14.982L45.541,14.982C42.244,14.982 39.568,17.659 39.568,20.955L39.568,32.902C39.568,36.199 42.244,38.876 45.541,38.876L57.488,38.876C60.785,38.876 63.462,36.199 63.462,32.902L63.462,20.955Z" style="fill:rgb(235,235,235);"/>
    </g>
    <g transform="matrix(0.977383,0,0,0.977383,470.256,46.9503)">
        <path d="M63.462,20.955C63.462,17.659 60.785,14.982 57.488,14.982L45.541,14.982C42.244,14.982 39.568,17.659 39.568,20.955L39.568,32.902C39.568,36.199 42.244,38.876 45.541,38.876L57.488,38.876C60.785,38.876 63.462,36.199 63.462,32.902L63.462,20.955Z" style="fill:rgb(0,183,255);"/>
    </g>
    <g transform="matrix(0.977383,0,0,0.977383,470.256,76.2718)">
        <path d="M63.462,20.955C63.462,17.659 60.785,14.982 57.488,14.982L45.541,14.982C42.244,14.982 39.568,17.659 39.568,20.955L39.568,32.902C39.568,36.199 42.244,38.876 45.541,38.876L57.488,38.876C60.785,38.876 63.462,36.199 63.462,32.902L63.462,20.955Z" style="fill:rgb(235,235,235);"/>
    </g>
    <g transform="matrix(0.977383,0,0,0.977383,470.256,105.593)">
        <path d="M63.462,20.955C63.462,17.659 60.785,14.982 57.488,14.982L45.541,14.982C42.244,14.982 39.568,17.659 39.568,20.955L39.568,32.902C39.568,36.199 42.244,38.876 45.541,38.876L57.488,38.876C60.785,38.876 63.462,36.199 63.462,32.902L63.462,20.955Z" style="fill:rgb(0,183,255);"/>
    </g>
    <g transform="matrix(0.977383,0,0,0.977383,470.256,134.915)">
        <path d="M63.462,20.955C63.462,17.659 60.785,14.982 57.488,14.982L45.541,14.982C42.244,14.982 39.568,17.659 39.568,20.955L39.568,32.902C39.568,36.199 42.244,38.876 45.541,38.876L57.488,38.876C60.785,38.876 63.462,36.199 63.462,32.902L63.462,20.955Z" style="fill:rgb(235,235,235);"/>
    </g>
    <g transform="matrix(0.977383,0,0,0.977383,470.256,164.236)">
        <path d="M63.462,20.955C63.462,17.659 60.785,14.982 57.488,14.982L45.541,14.982C42.244,14.982 39.568,17.659 39.568,20.955L39.568,32.902C39.568,36.199 42.244,38.876 45.541,38.876L57.488,38.876C60.785,38.876 63.462,36.199 63.462,32.902L63.462,20.955Z" style="fill:rgb(235,235,235);"/>
    </g>
    <g transform="matrix(0.977383,0,0,0.977383,499.577,-11.6927)">
        <path d="M63.462,20.955C63.462,17.659 60.785,14.982 57.488,14.982L45.541,14.982C42.244,14.982 39.568,17.659 39.568,20.955L39.568,32.902C39.568,36.199 42.244,38.876 45.541,38.876L57.488,38.876C60.785,38.876 63.462,36.199 63.462,32.902L63.462,20.955Z" style="fill:rgb(235,235,235);"/>
    </g>
    <g transform="matrix(0.977383,0,0,0.977383,499.577,17.6288)">
        <path d="M63.462,20.955C63.462,17.659 60.785,14.982 57.488,14.982L45.541,14.982C42.244,14.982 39.568,17.659 39.568,20.955L39.568,32.902C39.568,36.199 42.244,38.876 45.541,38.876L57.488,38.876C60.785,38.876 63.462,36.199 63.462,32.902L63.462,20.955Z" style="fill:rgb(235,235,235);"/>
    </g>
    <g transform="matrix(0.977383,0,0,0.977383,499.577,46.9503)">
        <path d="M63.462,20.955C63.462,17.659 60.785,14.982 57.488,14.982L45.541,14.982C42.244,14.982 39.568,17.659 39.568,20.955L39.568,32.902C39.568,36.199 42.244,38.876 45.541,38.876L57.488,38.876C60.785,38.876 63.462,36.199 63.462,32.902L63.462,20.955Z" style="fill:rgb(235,235,235);"/>
    </g>
    <g transform="matrix(0.977383,0,0,0.977383,499.577,76.2718)">
        <path d="M63.462,20.955C63.462,17.659 60.785,14.982 57.488,14.982L45.541,14.982C42.244,14.982 39.568,17.659 39.568,20.955L39.568,32.902C39.568,36.199 42.244,38.876 45.541,38.876L57.488,38.876C60.785,38.876 63.462,36.199 63.462,32.902L63.462,20.955Z" style="fill:rgb(0,147,255);"/>
    </g>
    <g transform="matrix(0.977383,0,0,0.977383,499.577,105.593)">
        <path d="M63.462,20.955C63.462,17.659 60.785,14.982 57.488,14.982L45.541,14.982C42.244,14.982 39.568,17.659 39.568,20.955L39.568,32.902C39.568,36.199 42.244,38.876 45.541,38.876L57.488,38.876C60.785,38.876 63.462,36.199 63.462,32.902L63.462,20.955Z" style="fill:rgb(0,147,255);"/>
    </g>
    <g transform="matrix(0.977383,0,0,0.977383,499.577,134.915)">
        <path d="M63.462,20.955C63.462,17.659 60.785,14.982 57.488,14.982L45.541,14.982C42.244,14.982 39.568,17.659 39.568,20.955L39.568,32.902C39.568,36.199 42.244,38.876 45.541,38.876L57.488,38.876C60.785,38.876 63.462,36.199 63.462,32.902L63.462,20.955Z" style="fill:rgb(0,170,255);"/>
    </g>
    <g transform="matrix(0.977383,0,0,0.977383,499.577,164.236)">
        <path d="M63.462,20.955C63.462,17.659 60.785,14.982 57.488,14.982L45.541,14.982C42.244,14.982 39.568,17.659 39.568,20.955L39.568,32.902C39.568,36.199 42.244,38.876 45.541,38.876L57.488,38.876C60.785,38.876 63.462,36.199 63.462,32.902L63.462,20.955Z" style="fill:rgb(235,235,235);"/>
    </g>
    <g transform="matrix(0.977383,0,0,0.977383,528.899,-11.6927)">
        <path d="M63.462,20.955C63.462,17.659 60.785,14.982 57.488,14.982L45.541,14.982C42.244,14.982 39.568,17.659 39.568,20.955L39.568,32.902C39.568,36.199 42.244,38.876 45.541,38.876L57.488,38.876C60.785,38.876 63.462,36.199 63.462,32.902L63.462,20.955Z" style="fill:rgb(235,235,235);"/>
    </g>
    <g transform="matrix(0.977383,0,0,0.977383,528.899,17.6288)">
        <path d="M63.462,20.955C63.462,17.659 60.785,14.982 57.488,14.982L45.541,14.982C42.244,14.982 39.568,17.659 39.568,20.955L39.568,32.902C39.568,36.199 42.244,38.876 45.541,38.876L57.488,38.876C60.785,38.876 63.462,36.199 63.462,32.902L63.462,20.955Z" style="fill:rgb(235,235,235);"/>
    </g>
    <g transform="matrix(0.977383,0,0,0.977383,528.899,46.9503)">
        <path d="M63.462,20.955C63.462,17.659 60.785,14.982 57.488,14.982L45.541,14.982C42.244,14.982 39.568,17.659 39.568,20.955L39.568,32.902C39.568,36.199 42.244,38.876 45.541,38.876L57.488,38.876C60.785,38.876 63.462,36.199 63.462,32.902L63.462,20.955Z" style="fill:rgb(235,235,235);"/>
    </g>
    <g transform="matrix(0.977383,0,0,0.977383,528.899,76.2718)">
        <path d="M63.462,20.955C63.462,17.659 60.785,14.982 57.488,14.982L45.541,14.982C42.244,14.982 39.568,17.659 39.568,20.955L39.568,32.902C39.568,36.199 42.244,38.876 45.541,38.876L57.488,38.876C60.785,38.876 63.462,36.199 63.462,32.902L63.462,20.955Z" style="fill:rgb(235,235,235);"/>
    </g>
    <g transform="matrix(0.977383,0,0,0.977383,528.899,105.593)">
        <path d="M63.462,20.955C63.462,17.659 60.785,14.982 57.488,14.982L45.541,14.982C42.244,14.982 39.568,17.659 39.568,20.955L39.568,32.902C39.568,36.199 42.244,38.876 45.541,38.876L57.488,38.876C60.785,38.876 63.462,36.199 63.462,32.902L63.462,20.955Z" style="fill:rgb(235,235,235);"/>
    </g>
    <g transform="matrix(0.977383,0,0,0.977383,528.899,134.915)">
        <path d="M63.462,20.955C63.462,17.659 60.785,14.982 57.488,14.982L45.541,14.982C42.244,14.982 39.568,17.659 39.568,20.955L39.568,32.902C39.568,36.199 42.244,38.876 45.541,38.876L57.488,38.876C60.785,38.876 63.462,36.199 63.462,32.902L63.462,20.955Z" style="fill:rgb(235,235,235);"/>
    </g>
    <g transform="matrix(0.977383,0,0,0.977383,528.899,164.236)">
        <path d="M63.462,20.955C63.462,17.659 60.785,14.982 57.488,14.982L45.541,14.982C42.244,14.982 39.568,17.659 39.568,20.955L39.568,32.902C39.568,36.199 42.244,38.876 45.541,38.876L57.488,38.876C60.785,38.876 63.462,36.199 63.462,32.902L63.462,20.955Z" style="fill:rgb(235,235,235);"/>
    </g>
    <g transform="matrix(0.977383,0,0,0.977383,558.22,-11.6927)">
        <path d="M63.462,20.955C63.462,17.659 60.785,14.982 57.488,14.982L45.541,14.982C42.244,14.982 39.568,17.659 39.568,20.955L39.568,32.902C39.568,36.199 42.244,38.876 45.541,38.876L57.488,38.876C60.785,38.876 63.462,36.199 63.462,32.902L63.462,20.955Z" style="fill:rgb(235,235,235);"/>
    </g>
    <g transform="matrix(0.977383,0,0,0.977383,558.22,17.6288)">
        <path d="M63.462,20.955C63.462,17.659 60.785,14.982 57.488,14.982L45.541,14.982C42.244,14.982 39.568,17.659 39.568,20.955L39.568,32.902C39.568,36.199 42.244,38.876 45.541,38.876L57.488,38.876C60.785,38.876 63.462,36.199 63.462,32.902L63.462,20.955Z" style="fill:rgb(235,235,235);"/>
    </g>
    <g transform="matrix(0.977383,0,0,0.977383,558.22,46.9503)">
        <path d="M63.462,20.955C63.462,17.659 60.785,14.982 57.488,14.982L45.541,14.982C42.244,14.982 39.568,17.659 39.568,20.955L39.568,32.902C39.568,36.199 42.244,38.876 45.541,38.876L57.488,38.876C60.785,38.876 63.462,36.199 63.462,32.902L63.462,20.955Z" style="fill:rgb(0,183,255);"/>
    </g>
    <g transform="matrix(0.977383,0,0,0.977383,558.22,76.2718)">
        <path d="M63.462,20.955C63.462,17.659 60.785,14.982 57.488,14.982L45.541,14.982C42.244,14.982 39.568,17.659 39.568,20.955L39.568,32.902C39.568,36.199 42.244,38.876 45.541,38.876L57.488,38.876C60.785,38.876 63.462,36.199 63.462,32.902L63.462,20.955Z" style="fill:rgb(0,170,255);"/>
    </g>
    <g transform="matrix(0.977383,0,0,0.977383,558.22,105.593)">
        <path d="M63.462,20.955C63.462,17.659 60.785,14.982 57.488,14.982L45.541,14.982C42.244,14.982 39.568,17.659 39.568,20.955L39.568,32.902C39.568,36.199 42.244,38.876 45.541,38.876L57.488,38.876C60.785,38.876 63.462,36.199 63.462,32.902L63.462,20.955Z" style="fill:rgb(0,183,255);"/>
    </g>
    <g transform="matrix(0.977383,0,0,0.977383,558.22,134.915)">
        <path d="M63.462,20.955C63.462,17.659 60.785,14.982 57.488,14.982L45.541,14.982C42.244,14.982 39.568,17.659 39.568,20.955L39.568,32.902C39.568,36.199 42.244,38.876 45.541,38.876L57.488,38.876C60.785,38.876 63.462,36.199 63.462,32.902L63.462,20.955Z" style="fill:rgb(0,170,255);"/>
    </g>
    <g transform="matrix(0.977383,0,0,0.977383,558.22,164.236)">
        <path d="M63.462,20.955C63.462,17.659 60.785,14.982 57.488,14.982L45.541,14.982C42.244,14.982 39.568,17.659 39.568,20.955L39.568,32.902C39.568,36.199 42.244,38.876 45.541,38.876L57.488,38.876C60.785,38.876 63.462,36.199 63.462,32.902L63.462,20.955Z" style="fill:rgb(235,235,235);"/>
    </g>
    <g transform="matrix(0.977383,0,0,0.977383,587.542,-11.6927)">
        <path d="M63.462,20.955C63.462,17.659 60.785,14.982 57.488,14.982L45.541,14.982C42.244,14.982 39.568,17.659 39.568,20.955L39.568,32.902C39.568,36.199 42.244,38.876 45.541,38.876L57.488,38.876C60.785,38.876 63.462,36.199 63.462,32.902L63.462,20.955Z" style="fill:rgb(235,235,235);"/>
    </g>
    <g transform="matrix(0.977383,0,0,0.977383,587.542,17.6288)">
        <path d="M63.462,20.955C63.462,17.659 60.785,14.982 57.488,14.982L45.541,14.982C42.244,14.982 39.568,17.659 39.568,20.955L39.568,32.902C39.568,36.199 42.244,38.876 45.541,38.876L57.488,38.876C60.785,38.876 63.462,36.199 63.462,32.902L63.462,20.955Z" style="fill:rgb(235,235,235);"/>
    </g>
    <g transform="matrix(0.977383,0,0,0.977383,587.542,46.9503)">
        <path d="M63.462,20.955C63.462,17.659 60.785,14.982 57.488,14.982L45.541,14.982C42.244,14.982 39.568,17.659 39.568,20.955L39.568,32.902C39.568,36.199 42.244,38.876 45.541,38.876L57.488,38.876C60.785,38.876 63.462,36.199 63.462,32.902L63.462,20.955Z" style="fill:rgb(235,235,235);"/>
    </g>
    <g transform="matrix(0.977383,0,0,0.977383,587.542,76.2718)">
        <path d="M63.462,20.955C63.462,17.659 60.785,14.982 57.488,14.982L45.541,14.982C42.244,14.982 39.568,17.659 39.568,20.955L39.568,32.902C39.568,36.199 42.244,38.876 45.541,38.876L57.488,38.876C60.785,38.876 63.462,36.199 63.462,32.902L63.462,20.955Z" style="fill:rgb(0,147,255);"/>
    </g>
    <g transform="matrix(0.977383,0,0,0.977383,587.542,105.593)">
        <path d="M63.462,20.955C63.462,17.659 60.785,14.982 57.488,14.982L45.541,14.982C42.244,14.982 39.568,17.659 39.568,20.955L39.568,32.902C39.568,36.199 42.244,38.876 45.541,38.876L57.488,38.876C60.785,38.876 63.462,36.199 63.462,32.902L63.462,20.955Z" style="fill:rgb(235,235,235);"/>
    </g>
    <g transform="matrix(0.977383,0,0,0.977383,587.542,134.915)">
        <path d="M63.462,20.955C63.462,17.659 60.785,14.982 57.488,14.982L45.541,14.982C42.244,14.982 39.568,17.659 39.568,20.955L39.568,32.902C39.568,36.199 42.244,38.876 45.541,38.876L57.488,38.876C60.785,38.876 63.462,36.199 63.462,32.902L63.462,20.955Z" style="fill:rgb(235,235,235);"/>
    </g>
    <g transform="matrix(0.977383,0,0,0.977383,587.542,164.236)">
        <path d="M63.462,20.955C63.462,17.659 60.785,14.982 57.488,14.982L45.541,14.982C42.244,14.982 39.568,17.659 39.568,20.955L39.568,32.902C39.568,36.199 42.244,38.876 45.541,38.876L57.488,38.876C60.785,38.876 63.462,36.199 63.462,32.902L63.462,20.955Z" style="fill:rgb(235,235,235);"/>
    </g>
    <g transform="matrix(0.977383,0,0,0.977383,616.863,-11.6927)">
        <path d="M63.462,20.955C63.462,17.659 60.785,14.982 57.488,14.982L45.541,14.982C42.244,14.982 39.568,17.659 39.568,20.955L39.568,32.902C39.568,36.199 42.244,38.876 45.541,38.876L57.488,38.876C60.785,38.876 63.462,36.199 63.462,32.902L63.462,20.955Z" style="fill:rgb(235,235,235);"/>
    </g>
    <g transform="matrix(0.977383,0,0,0.977383,616.863,17.6288)">
        <path d="M63.462,20.955C63.462,17.659 60.785,14.982 57.488,14.982L45.541,14.982C42.244,14.982 39.568,17.659 39.568,20.955L39.568,32.902C39.568,36.199 42.244,38.876 45.541,38.876L57.488,38.876C60.785,38.876 63.462,36.199 63.462,32.902L63.462,20.955Z" style="fill:rgb(235,235,235);"/>
    </g>
    <g transform="matrix(0.977383,0,0,0.977383,616.863,46.9503)">
        <path d="M63.462,20.955C63.462,17.659 60.785,14.982 57.488,14.982L45.541,14.982C42.244,14.982 39.568,17.659 39.568,20.955L39.568,32.902C39.568,36.199 42.244,38.876 45.541,38.876L57.488,38.876C60.785,38.876 63.462,36.199 63.462,32.902L63.462,20.955Z" style="fill:rgb(235,235,235);"/>
    </g>
    <g transform="matrix(0.977383,0,0,0.977383,616.863,76.2718)">
        <path d="M63.462,20.955C63.462,17.659 60.785,14.982 57.488,14.982L45.541,14.982C42.244,14.982 39.568,17.659 39.568,20.955L39.568,32.902C39.568,36.199 42.244,38.876 45.541,38.876L57.488,38.876C60.785,38.876 63.462,36.199 63.462,32.902L63.462,20.955Z" style="fill:rgb(235,235,235);"/>
    </g>
    <g transform="matrix(0.977383,0,0,0.977383,616.863,105.593)">
        <path d="M63.462,20.955C63.462,17.659 60.785,14.982 57.488,14.982L45.541,14.982C42.244,14.982 39.568,17.659 39.568,20.955L39.568,32.902C39.568,36.199 42.244,38.876 45.541,38.876L57.488,38.876C60.785,38.876 63.462,36.199 63.462,32.902L63.462,20.955Z" style="fill:rgb(0,147,255);"/>
    </g>
    <g transform="matrix(0.977383,0,0,0.977383,616.863,134.915)">
        <path d="M63.462,20.955C63.462,17.659 60.785,14.982 57.488,14.982L45.541,14.982C42.244,14.982 39.568,17.659 39.568,20.955L39.568,32.902C39.568,36.199 42.244,38.876 45.541,38.876L57.488,38.876C60.785,38.876 63.462,36.199 63.462,32.902L63.462,20.955Z" style="fill:rgb(235,235,235);"/>
    </g>
    <g transform="matrix(0.977383,0,0,0.977383,616.863,164.236)">
        <path d="M63.462,20.955C63.462,17.659 60.785,14.982 57.488,14.982L45.541,14.982C42.244,14.982 39.568,17.659 39.568,20.955L39.568,32.902C39.568,36.199 42.244,38.876 45.541,38.876L57.488,38.876C60.785,38.876 63.462,36.199 63.462,32.902L63.462,20.955Z" style="fill:rgb(235,235,235);"/>
    </g>
    <g transform="matrix(0.977383,0,0,0.977383,646.185,-11.6927)">
        <path d="M63.462,20.955C63.462,17.659 60.785,14.982 57.488,14.982L45.541,14.982C42.244,14.982 39.568,17.659 39.568,20.955L39.568,32.902C39.568,36.199 42.244,38.876 45.541,38.876L57.488,38.876C60.785,38.876 63.462,36.199 63.462,32.902L63.462,20.955Z" style="fill:rgb(235,235,235);"/>
    </g>
    <g transform="matrix(0.977383,0,0,0.977383,646.185,17.6288)">
        <path d="M63.462,20.955C63.462,17.659 60.785,14.982 57.488,14.982L45.541,14.982C42.244,14.982 39.568,17.659 39.568,20.955L39.568,32.902C39.568,36.199 42.244,38.876 45.541,38.876L57.488,38.876C60.785,38.876 63.462,36.199 63.462,32.902L63.462,20.955Z" style="fill:rgb(235,235,235);"/>
    </g>
    <g transform="matrix(0.977383,0,0,0.977383,646.185,46.9503)">
        <path d="M63.462,20.955C63.462,17.659 60.785,14.982 57.488,14.982L45.541,14.982C42.244,14.982 39.568,17.659 39.568,20.955L39.568,32.902C39.568,36.199 42.244,38.876 45.541,38.876L57.488,38.876C60.785,38.876 63.462,36.199 63.462,32.902L63.462,20.955Z" style="fill:rgb(0,183,255);"/>
    </g>
    <g transform="matrix(0.977383,0,0,0.977383,646.185,76.2718)">
        <path d="M63.462,20.955C63.462,17.659 60.785,14.982 57.488,14.982L45.541,14.982C42.244,14.982 39.568,17.659 39.568,20.955L39.568,32.902C39.568,36.199 42.244,38.876 45.541,38.876L57.488,38.876C60.785,38.876 63.462,36.199 63.462,32.902L63.462,20.955Z" style="fill:rgb(0,183,255);"/>
    </g>
    <g transform="matrix(0.977383,0,0,0.977383,646.185,105.593)">
        <path d="M63.462,20.955C63.462,17.659 60.785,14.982 57.488,14.982L45.541,14.982C42.244,14.982 39.568,17.659 39.568,20.955L39.568,32.902C39.568,36.199 42.244,38.876 45.541,38.876L57.488,38.876C60.785,38.876 63.462,36.199 63.462,32.902L63.462,20.955Z" style="fill:rgb(0,170,255);"/>
    </g>
    <g transform="matrix(0.977383,0,0,0.977383,646.185,134.915)">
        <path d="M63.462,20.955C63.462,17.659 60.785,14.982 57.488,14.982L45.541,14.982C42.244,14.982 39.568,17.659 39.568,20.955L39.568,32.902C39.568,36.199 42.244,38.876 45.541,38.876L57.488,38.876C60.785,38.876 63.462,36.199 63.462,32.902L63.462,20.955Z" style="fill:rgb(0,183,255);"/>
    </g>
    <g transform="matrix(0.977383,0,0,0.977383,646.185,164.236)">
        <path d="M63.462,20.955C63.462,17.659 60.785,14.982 57.488,14.982L45.541,14.982C42.244,14.982 39.568,17.659 39.568,20.955L39.568,32.902C39.568,36.199 42.244,38.876 45.541,38.876L57.488,38.876C60.785,38.876 63.462,36.199 63.462,32.902L63.462,20.955Z" style="fill:rgb(235,235,235);"/>
    </g>
    <g transform="matrix(0.977383,0,0,0.977383,675.506,-11.6927)">
        <path d="M63.462,20.955C63.462,17.659 60.785,14.982 57.488,14.982L45.541,14.982C42.244,14.982 39.568,17.659 39.568,20.955L39.568,32.902C39.568,36.199 42.244,38.876 45.541,38.876L57.488,38.876C60.785,38.876 63.462,36.199 63.462,32.902L63.462,20.955Z" style="fill:rgb(235,235,235);"/>
    </g>
    <g transform="matrix(0.977383,0,0,0.977383,675.506,17.6288)">
        <path d="M63.462,20.955C63.462,17.659 60.785,14.982 57.488,14.982L45.541,14.982C42.244,14.982 39.568,17.659 39.568,20.955L39.568,32.902C39.568,36.199 42.244,38.876 45.541,38.876L57.488,38.876C60.785,38.876 63.462,36.199 63.462,32.902L63.462,20.955Z" style="fill:rgb(235,235,235);"/>
    </g>
    <g transform="matrix(0.977383,0,0,0.977383,675.506,46.9503)">
        <path d="M63.462,20.955C63.462,17.659 60.785,14.982 57.488,14.982L45.541,14.982C42.244,14.982 39.568,17.659 39.568,20.955L39.568,32.902C39.568,36.199 42.244,38.876 45.541,38.876L57.488,38.876C60.785,38.876 63.462,36.199 63.462,32.902L63.462,20.955Z" style="fill:rgb(235,235,235);"/>
    </g>
    <g transform="matrix(0.977383,0,0,0.977383,675.506,76.2718)">
        <path d="M63.462,20.955C63.462,17.659 60.785,14.982 57.488,14.982L45.541,14.982C42.244,14.982 39.568,17.659 39.568,20.955L39.568,32.902C39.568,36.199 42.244,38.876 45.541,38.876L57.488,38.876C60.785,38.876 63.462,36.199 63.462,32.902L63.462,20.955Z" style="fill:rgb(235,235,235);"/>
    </g>
    <g transform="matrix(0.977383,0,0,0.977383,675.506,105.593)">
        <path d="M63.462,20.955C63.462,17.659 60.785,14.982 57.488,14.982L45.541,14.982C42.244,14.982 39.568,17.659 39.568,20.955L39.568,32.902C39.568,36.199 42.244,38.876 45.541,38.876L57.488,38.876C60.785,38.876 63.462,36.199 63.462,32.902L63.462,20.955Z" style="fill:rgb(235,235,235);"/>
    </g>
    <g transform="matrix(0.977383,0,0,0.977383,675.506,134.915)">
        <path d="M63.462,20.955C63.462,17.659 60.785,14.982 57.488,14.982L45.541,14.982C42.244,14.982 39.568,17.659 39.568,20.955L39.568,32.902C39.568,36.199 42.244,38.876 45.541,38.876L57.488,38.876C60.785,38.876 63.462,36.199 63.462,32.902L63.462,20.955Z" style="fill:rgb(235,235,235);"/>
    </g>
    <g transform="matrix(0.977383,0,0,0.977383,675.506,164.236)">
        <path d="M63.462,20.955C63.462,17.659 60.785,14.982 57.488,14.982L45.541,14.982C42.244,14.982 39.568,17.659 39.568,20.955L39.568,32.902C39.568,36.199 42.244,38.876 45.541,38.876L57.488,38.876C60.785,38.876 63.462,36.199 63.462,32.902L63.462,20.955Z" style="fill:rgb(235,235,235);"/>
    </g>
    <g transform="matrix(0.977383,0,0,0.977383,704.828,-11.6927)">
        <path d="M63.462,20.955C63.462,17.659 60.785,14.982 57.488,14.982L45.541,14.982C42.244,14.982 39.568,17.659 39.568,20.955L39.568,32.902C39.568,36.199 42.244,38.876 45.541,38.876L57.488,38.876C60.785,38.876 63.462,36.199 63.462,32.902L63.462,20.955Z" style="fill:rgb(235,235,235);"/>
    </g>
    <g transform="matrix(0.977383,0,0,0.977383,704.828,17.6288)">
        <path d="M63.462,20.955C63.462,17.659 60.785,14.982 57.488,14.982L45.541,14.982C42.244,14.982 39.568,17.659 39.568,20.955L39.568,32.902C39.568,36.199 42.244,38.876 45.541,38.876L57.488,38.876C60.785,38.876 63.462,36.199 63.462,32.902L63.462,20.955Z" style="fill:rgb(235,235,235);"/>
    </g>
    <g transform="matrix(0.977383,0,0,0.977383,704.828,46.9503)">
        <path d="M63.462,20.955C63.462,17.659 60.785,14.982 57.488,14.982L45.541,14.982C42.244,14.982 39.568,17.659 39.568,20.955L39.568,32.902C39.568,36.199 42.244,38.876 45.541,38.876L57.488,38.876C60.785,38.876 63.462,36.199 63.462,32.902L63.462,20.955Z" style="fill:rgb(0,147,255);"/>
    </g>
    <g transform="matrix(0.977383,0,0,0.977383,704.828,76.2718)">
        <path d="M63.462,20.955C63.462,17.659 60.785,14.982 57.488,14.982L45.541,14.982C42.244,14.982 39.568,17.659 39.568,20.955L39.568,32.902C39.568,36.199 42.244,38.876 45.541,38.876L57.488,38.876C60.785,38.876 63.462,36.199 63.462,32.902L63.462,20.955Z" style="fill:rgb(0,170,255);"/>
    </g>
    <g transform="matrix(0.977383,0,0,0.977383,704.828,105.593)">
        <path d="M63.462,20.955C63.462,17.659 60.785,14.982 57.488,14.982L45.541,14.982C42.244,14.982 39.568,17.659 39.568,20.955L39.568,32.902C39.568,36.199 42.244,38.876 45.541,38.876L57.488,38.876C60.785,38.876 63.462,36.199 63.462,32.902L63.462,20.955Z" style="fill:rgb(0,170,255);"/>
    </g>
    <g transform="matrix(0.977383,0,0,0.977383,704.828,134.915)">
        <path d="M63.462,20.955C63.462,17.659 60.785,14.982 57.488,14.982L45.541,14.982C42.244,14.982 39.568,17.659 39.568,20.955L39.568,32.902C39.568,36.199 42.244,38.876 45.541,38.876L57.488,38.876C60.785,38.876 63.462,36.199 63.462,32.902L63.462,20.955Z" style="fill:rgb(0,170,255);"/>
    </g>
    <g transform="matrix(0.977383,0,0,0.977383,704.828,164.236)">
        <path d="M63.462,20.955C63.462,17.659 60.785,14.982 57.488,14.982L45.541,14.982C42.244,14.982 39.568,17.659 39.568,20.955L39.568,32.902C39.568,36.199 42.244,38.876 45.541,38.876L57.488,38.876C60.785,38.876 63.462,36.199 63.462,32.902L63.462,20.955Z" style="fill:rgb(235,235,235);"/>
    </g>
    <g transform="matrix(0.977383,0,0,0.977383,734.149,-11.6927)">
        <path d="M63.462,20.955C63.462,17.659 60.785,14.982 57.488,14.982L45.541,14.982C42.244,14.982 39.568,17.659 39.568,20.955L39.568,32.902C39.568,36.199 42.244,38.876 45.541,38.876L57.488,38.876C60.785,38.876 63.462,36.199 63.462,32.902L63.462,20.955Z" style="fill:rgb(235,235,235);"/>
    </g>
    <g transform="matrix(0.977383,0,0,0.977383,734.149,17.6288)">
        <path d="M63.462,20.955C63.462,17.659 60.785,14.982 57.488,14.982L45.541,14.982C42.244,14.982 39.568,17.659 39.568,20.955L39.568,32.902C39.568,36.199 42.244,38.876 45.541,38.876L57.488,38.876C60.785,38.876 63.462,36.199 63.462,32.902L63.462,20.955Z" style="fill:rgb(235,235,235);"/>
    </g>
    <g transform="matrix(0.977383,0,0,0.977383,734.149,46.9503)">
        <path d="M63.462,20.955C63.462,17.659 60.785,14.982 57.488,14.982L45.541,14.982C42.244,14.982 39.568,17.659 39.568,20.955L39.568,32.902C39.568,36.199 42.244,38.876 45.541,38.876L57.488,38.876C60.785,38.876 63.462,36.199 63.462,32.902L63.462,20.955Z" style="fill:rgb(235,235,235);"/>
    </g>
    <g transform="matrix(0.977383,0,0,0.977383,734.149,76.2718)">
        <path d="M63.462,20.955C63.462,17.659 60.785,14.982 57.488,14.982L45.541,14.982C42.244,14.982 39.568,17.659 39.568,20.955L39.568,32.902C39.568,36.199 42.244,38.876 45.541,38.876L57.488,38.876C60.785,38.876 63.462,36.199 63.462,32.902L63.462,20.955Z" style="fill:rgb(0,183,255);"/>
    </g>
    <g transform="matrix(0.977383,0,0,0.977383,734.149,105.593)">
        <path d="M63.462,20.955C63.462,17.659 60.785,14.982 57.488,14.982L45.541,14.982C42.244,14.982 39.568,17.659 39.568,20.955L39.568,32.902C39.568,36.199 42.244,38.876 45.541,38.876L57.488,38.876C60.785,38.876 63.462,36.199 63.462,32.902L63.462,20.955Z" style="fill:rgb(235,235,235);"/>
    </g>
    <g transform="matrix(0.977383,0,0,0.977383,734.149,134.915)">
        <path d="M63.462,20.955C63.462,17.659 60.785,14.982 57.488,14.982L45.541,14.982C42.244,14.982 39.568,17.659 39.568,20.955L39.568,32.902C39.568,36.199 42.244,38.876 45.541,38.876L57.488,38.876C60.785,38.876 63.462,36.199 63.462,32.902L63.462,20.955Z" style="fill:rgb(235,235,235);"/>
    </g>
    <g transform="matrix(0.977383,0,0,0.977383,734.149,164.236)">
        <path d="M63.462,20.955C63.462,17.659 60.785,14.982 57.488,14.982L45.541,14.982C42.244,14.982 39.568,17.659 39.568,20.955L39.568,32.902C39.568,36.199 42.244,38.876 45.541,38.876L57.488,38.876C60.785,38.876 63.462,36.199 63.462,32.902L63.462,20.955Z" style="fill:rgb(235,235,235);"/>
    </g>
    <g transform="matrix(0.977383,0,0,0.977383,763.471,-11.6927)">
        <path d="M63.462,20.955C63.462,17.659 60.785,14.982 57.488,14.982L45.541,14.982C42.244,14.982 39.568,17.659 39.568,20.955L39.568,32.902C39.568,36.199 42.244,38.876 45.541,38.876L57.488,38.876C60.785,38.876 63.462,36.199 63.462,32.902L63.462,20.955Z" style="fill:rgb(235,235,235);"/>
    </g>
    <g transform="matrix(0.977383,0,0,0.977383,763.471,17.6288)">
        <path d="M63.462,20.955C63.462,17.659 60.785,14.982 57.488,14.982L45.541,14.982C42.244,14.982 39.568,17.659 39.568,20.955L39.568,32.902C39.568,36.199 42.244,38.876 45.541,38.876L57.488,38.876C60.785,38.876 63.462,36.199 63.462,32.902L63.462,20.955Z" style="fill:rgb(235,235,235);"/>
    </g>
    <g transform="matrix(0.977383,0,0,0.977383,763.471,46.9503)">
        <path d="M63.462,20.955C63.462,17.659 60.785,14.982 57.488,14.982L45.541,14.982C42.244,14.982 39.568,17.659 39.568,20.955L39.568,32.902C39.568,36.199 42.244,38.876 45.541,38.876L57.488,38.876C60.785,38.876 63.462,36.199 63.462,32.902L63.462,20.955Z" style="fill:rgb(235,235,235);"/>
    </g>
    <g transform="matrix(0.977383,0,0,0.977383,763.471,76.2718)">
        <path d="M63.462,20.955C63.462,17.659 60.785,14.982 57.488,14.982L45.541,14.982C42.244,14.982 39.568,17.659 39.568,20.955L39.568,32.902C39.568,36.199 42.244,38.876 45.541,38.876L57.488,38.876C60.785,38.876 63.462,36.199 63.462,32.902L63.462,20.955Z" style="fill:rgb(235,235,235);"/>
    </g>
    <g transform="matrix(0.977383,0,0,0.977383,763.471,105.593)">
        <path d="M63.462,20.955C63.462,17.659 60.785,14.982 57.488,14.982L45.541,14.982C42.244,14.982 39.568,17.659 39.568,20.955L39.568,32.902C39.568,36.199 42.244,38.876 45.541,38.876L57.488,38.876C60.785,38.876 63.462,36.199 63.462,32.902L63.462,20.955Z" style="fill:rgb(0,183,255);"/>
    </g>
    <g transform="matrix(0.977383,0,0,0.977383,763.471,134.915)">
        <path d="M63.462,20.955C63.462,17.659 60.785,14.982 57.488,14.982L45.541,14.982C42.244,14.982 39.568,17.659 39.568,20.955L39.568,32.902C39.568,36.199 42.244,38.876 45.541,38.876L57.488,38.876C60.785,38.876 63.462,36.199 63.462,32.902L63.462,20.955Z" style="fill:rgb(235,235,235);"/>
    </g>
    <g transform="matrix(0.977383,0,0,0.977383,763.471,164.236)">
        <path d="M63.462,20.955C63.462,17.659 60.785,14.982 57.488,14.982L45.541,14.982C42.244,14.982 39.568,17.659 39.568,20.955L39.568,32.902C39.568,36.199 42.244,38.876 45.541,38.876L57.488,38.876C60.785,38.876 63.462,36.199 63.462,32.902L63.462,20.955Z" style="fill:rgb(235,235,235);"/>
    </g>
    <g transform="matrix(0.977383,0,0,0.977383,763.471,222.879)">
        <path d="M63.462,20.955C63.462,17.659 60.785,14.982 57.488,14.982L45.541,14.982C42.244,14.982 39.568,17.659 39.568,20.955L39.568,32.902C39.568,36.199 42.244,38.876 45.541,38.876L57.488,38.876C60.785,38.876 63.462,36.199 63.462,32.902L63.462,20.955Z" style="fill:rgb(235,235,235);"/>
    </g>
    <g transform="matrix(0.977383,0,0,0.977383,792.792,-11.6927)">
        <path d="M63.462,20.955C63.462,17.659 60.785,14.982 57.488,14.982L45.541,14.982C42.244,14.982 39.568,17.659 39.568,20.955L39.568,32.902C39.568,36.199 42.244,38.876 45.541,38.876L57.488,38.876C60.785,38.876 63.462,36.199 63.462,32.902L63.462,20.955Z" style="fill:rgb(235,235,235);"/>
    </g>
    <g transform="matrix(0.977383,0,0,0.977383,792.792,17.6288)">
        <path d="M63.462,20.955C63.462,17.659 60.785,14.982 57.488,14.982L45.541,14.982C42.244,14.982 39.568,17.659 39.568,20.955L39.568,32.902C39.568,36.199 42.244,38.876 45.541,38.876L57.488,38.876C60.785,38.876 63.462,36.199 63.462,32.902L63.462,20.955Z" style="fill:rgb(235,235,235);"/>
    </g>
    <g transform="matrix(0.977383,0,0,0.977383,792.792,46.9503)">
        <path d="M63.462,20.955C63.462,17.659 60.785,14.982 57.488,14.982L45.541,14.982C42.244,14.982 39.568,17.659 39.568,20.955L39.568,32.902C39.568,36.199 42.244,38.876 45.541,38.876L57.488,38.876C60.785,38.876 63.462,36.199 63.462,32.902L63.462,20.955Z" style="fill:rgb(0,170,255);"/>
    </g>
    <g transform="matrix(0.977383,0,0,0.977383,792.792,76.2718)">
        <path d="M63.462,20.955C63.462,17.659 60.785,14.982 57.488,14.982L45.541,14.982C42.244,14.982 39.568,17.659 39.568,20.955L39.568,32.902C39.568,36.199 42.244,38.876 45.541,38.876L57.488,38.876C60.785,38.876 63.462,36.199 63.462,32.902L63.462,20.955Z" style="fill:rgb(0,170,255);"/>
    </g>
    <g transform="matrix(0.977383,0,0,0.977383,792.792,105.593)">
        <path d="M63.462,20.955C63.462,17.659 60.785,14.982 57.488,14.982L45.541,14.982C42.244,14.982 39.568,17.659 39.568,20.955L39.568,32.902C39.568,36.199 42.244,38.876 45.541,38.876L57.488,38.876C60.785,38.876 63.462,36.199 63.462,32.902L63.462,20.955Z" style="fill:rgb(0,147,255);"/>
    </g>
    <g transform="matrix(0.977383,0,0,0.977383,792.792,134.915)">
        <path d="M63.462,20.955C63.462,17.659 60.785,14.982 57.488,14.982L45.541,14.982C42.244,14.982 39.568,17.659 39.568,20.955L39.568,32.902C39.568,36.199 42.244,38.876 45.541,38.876L57.488,38.876C60.785,38.876 63.462,36.199 63.462,32.902L63.462,20.955Z" style="fill:rgb(0,147,255);"/>
    </g>
    <g transform="matrix(0.977383,0,0,0.977383,792.792,164.236)">
        <path d="M63.462,20.955C63.462,17.659 60.785,14.982 57.488,14.982L45.541,14.982C42.244,14.982 39.568,17.659 39.568,20.955L39.568,32.902C39.568,36.199 42.244,38.876 45.541,38.876L57.488,38.876C60.785,38.876 63.462,36.199 63.462,32.902L63.462,20.955Z" style="fill:rgb(235,235,235);"/>
    </g>
    <g transform="matrix(0.977383,0,0,0.977383,792.792,222.879)">
        <path d="M63.462,20.955C63.462,17.659 60.785,14.982 57.488,14.982L45.541,14.982C42.244,14.982 39.568,17.659 39.568,20.955L39.568,32.902C39.568,36.199 42.244,38.876 45.541,38.876L57.488,38.876C60.785,38.876 63.462,36.199 63.462,32.902L63.462,20.955Z" style="fill:rgb(0,183,255);"/>
    </g>
    <g transform="matrix(0.977383,0,0,0.977383,822.114,-11.6927)">
        <path d="M63.462,20.955C63.462,17.659 60.785,14.982 57.488,14.982L45.541,14.982C42.244,14.982 39.568,17.659 39.568,20.955L39.568,32.902C39.568,36.199 42.244,38.876 45.541,38.876L57.488,38.876C60.785,38.876 63.462,36.199 63.462,32.902L63.462,20.955Z" style="fill:rgb(235,235,235);"/>
    </g>
    <g transform="matrix(0.977383,0,0,0.977383,822.114,17.6288)">
        <path d="M63.462,20.955C63.462,17.659 60.785,14.982 57.488,14.982L45.541,14.982C42.244,14.982 39.568,17.659 39.568,20.955L39.568,32.902C39.568,36.199 42.244,38.876 45.541,38.876L57.488,38.876C60.785,38.876 63.462,36.199 63.462,32.902L63.462,20.955Z" style="fill:rgb(235,235,235);"/>
    </g>
    <g transform="matrix(0.977383,0,0,0.977383,822.114,46.9503)">
        <path d="M63.462,20.955C63.462,17.659 60.785,14.982 57.488,14.982L45.541,14.982C42.244,14.982 39.568,17.659 39.568,20.955L39.568,32.902C39.568,36.199 42.244,38.876 45.541,38.876L57.488,38.876C60.785,38.876 63.462,36.199 63.462,32.902L63.462,20.955Z" style="fill:rgb(235,235,235);"/>
    </g>
    <g transform="matrix(0.977383,0,0,0.977383,822.114,76.2718)">
        <path d="M63.462,20.955C63.462,17.659 60.785,14.982 57.488,14.982L45.541,14.982C42.244,14.982 39.568,17.659 39.568,20.955L39.568,32.902C39.568,36.199 42.244,38.876 45.541,38.876L57.488,38.876C60.785,38.876 63.462,36.199 63.462,32.902L63.462,20.955Z" style="fill:rgb(235,235,235);"/>
    </g>
    <g transform="matrix(0.977383,0,0,0.977383,822.114,105.593)">
        <path d="M63.462,20.955C63.462,17.659 60.785,14.982 57.488,14.982L45.541,14.982C42.244,14.982 39.568,17.659 39.568,20.955L39.568,32.902C39.568,36.199 42.244,38.876 45.541,38.876L57.488,38.876C60.785,38.876 63.462,36.199 63.462,32.902L63.462,20.955Z" style="fill:rgb(235,235,235);"/>
    </g>
    <g transform="matrix(0.977383,0,0,0.977383,822.114,134.915)">
        <path d="M63.462,20.955C63.462,17.659 60.785,14.982 57.488,14.982L45.541,14.982C42.244,14.982 39.568,17.659 39.568,20.955L39.568,32.902C39.568,36.199 42.244,38.876 45.541,38.876L57.488,38.876C60.785,38.876 63.462,36.199 63.462,32.902L63.462,20.955Z" style="fill:rgb(235,235,235);"/>
    </g>
    <g transform="matrix(0.977383,0,0,0.977383,822.114,164.236)">
        <path d="M63.462,20.955C63.462,17.659 60.785,14.982 57.488,14.982L45.541,14.982C42.244,14.982 39.568,17.659 39.568,20.955L39.568,32.902C39.568,36.199 42.244,38.876 45.541,38.876L57.488,38.876C60.785,38.876 63.462,36.199 63.462,32.902L63.462,20.955Z" style="fill:rgb(235,235,235);"/>
    </g>
    <g transform="matrix(0.977383,0,0,0.977383,822.114,222.879)">
        <path d="M63.462,20.955C63.462,17.659 60.785,14.982 57.488,14.982L45.541,14.982C42.244,14.982 39.568,17.659 39.568,20.955L39.568,32.902C39.568,36.199 42.244,38.876 45.541,38.876L57.488,38.876C60.785,38.876 63.462,36.199 63.462,32.902L63.462,20.955Z" style="fill:rgb(0,170,255);"/>
    </g>
    <g transform="matrix(0.977383,0,0,0.977383,851.435,-11.6927)">
        <path d="M63.462,20.955C63.462,17.659 60.785,14.982 57.488,14.982L45.541,14.982C42.244,14.982 39.568,17.659 39.568,20.955L39.568,32.902C39.568,36.199 42.244,38.876 45.541,38.876L57.488,38.876C60.785,38.876 63.462,36.199 63.462,32.902L63.462,20.955Z" style="fill:rgb(235,235,235);"/>
    </g>
    <g transform="matrix(0.977383,0,0,0.977383,851.435,17.6288)">
        <path d="M63.462,20.955C63.462,17.659 60.785,14.982 57.488,14.982L45.541,14.982C42.244,14.982 39.568,17.659 39.568,20.955L39.568,32.902C39.568,36.199 42.244,38.876 45.541,38.876L57.488,38.876C60.785,38.876 63.462,36.199 63.462,32.902L63.462,20.955Z" style="fill:rgb(235,235,235);"/>
    </g>
    <g transform="matrix(0.977383,0,0,0.977383,851.435,46.9503)">
        <path d="M63.462,20.955C63.462,17.659 60.785,14.982 57.488,14.982L45.541,14.982C42.244,14.982 39.568,17.659 39.568,20.955L39.568,32.902C39.568,36.199 42.244,38.876 45.541,38.876L57.488,38.876C60.785,38.876 63.462,36.199 63.462,32.902L63.462,20.955Z" style="fill:rgb(235,235,235);"/>
    </g>
    <g transform="matrix(0.977383,0,0,0.977383,851.435,76.2718)">
        <path d="M63.462,20.955C63.462,17.659 60.785,14.982 57.488,14.982L45.541,14.982C42.244,14.982 39.568,17.659 39.568,20.955L39.568,32.902C39.568,36.199 42.244,38.876 45.541,38.876L57.488,38.876C60.785,38.876 63.462,36.199 63.462,32.902L63.462,20.955Z" style="fill:rgb(235,235,235);"/>
    </g>
    <g transform="matrix(0.977383,0,0,0.977383,851.435,105.593)">
        <path d="M63.462,20.955C63.462,17.659 60.785,14.982 57.488,14.982L45.541,14.982C42.244,14.982 39.568,17.659 39.568,20.955L39.568,32.902C39.568,36.199 42.244,38.876 45.541,38.876L57.488,38.876C60.785,38.876 63.462,36.199 63.462,32.902L63.462,20.955Z" style="fill:rgb(235,235,235);"/>
    </g>
    <g transform="matrix(0.977383,0,0,0.977383,851.435,134.915)">
        <path d="M63.462,20.955C63.462,17.659 60.785,14.982 57.488,14.982L45.541,14.982C42.244,14.982 39.568,17.659 39.568,20.955L39.568,32.902C39.568,36.199 42.244,38.876 45.541,38.876L57.488,38.876C60.785,38.876 63.462,36.199 63.462,32.902L63.462,20.955Z" style="fill:rgb(235,235,235);"/>
    </g>
    <g transform="matrix(0.977383,0,0,0.977383,851.435,164.236)">
        <path d="M63.462,20.955C63.462,17.659 60.785,14.982 57.488,14.982L45.541,14.982C42.244,14.982 39.568,17.659 39.568,20.955L39.568,32.902C39.568,36.199 42.244,38.876 45.541,38.876L57.488,38.876C60.785,38.876 63.462,36.199 63.462,32.902L63.462,20.955Z" style="fill:rgb(235,235,235);"/>
    </g>
    <g transform="matrix(0.977383,0,0,0.977383,-28.2096,193.558)">
        <path d="M63.462,20.955C63.462,17.659 60.785,14.982 57.488,14.982L45.541,14.982C42.244,14.982 39.568,17.659 39.568,20.955L39.568,32.902C39.568,36.199 42.244,38.876 45.541,38.876L57.488,38.876C60.785,38.876 63.462,36.199 63.462,32.902L63.462,20.955Z" style="fill:rgb(235,235,235);"/>
    </g>
    <g transform="matrix(0.977383,0,0,0.977383,1.11194,193.558)">
        <path d="M63.462,20.955C63.462,17.659 60.785,14.982 57.488,14.982L45.541,14.982C42.244,14.982 39.568,17.659 39.568,20.955L39.568,32.902C39.568,36.199 42.244,38.876 45.541,38.876L57.488,38.876C60.785,38.876 63.462,36.199 63.462,32.902L63.462,20.955Z" style="fill:rgb(235,235,235);"/>
    </g>
    <g transform="matrix(0.977383,0,0,0.977383,30.4334,193.558)">
        <path d="M63.462,20.955C63.462,17.659 60.785,14.982 57.488,14.982L45.541,14.982C42.244,14.982 39.568,17.659 39.568,20.955L39.568,32.902C39.568,36.199 42.244,38.876 45.541,38.876L57.488,38.876C60.785,38.876 63.462,36.199 63.462,32.902L63.462,20.955Z" style="fill:rgb(235,235,235);"/>
    </g>
    <g transform="matrix(0.977383,0,0,0.977383,59.7549,193.558)">
        <path d="M63.462,20.955C63.462,17.659 60.785,14.982 57.488,14.982L45.541,14.982C42.244,14.982 39.568,17.659 39.568,20.955L39.568,32.902C39.568,36.199 42.244,38.876 45.541,38.876L57.488,38.876C60.785,38.876 63.462,36.199 63.462,32.902L63.462,20.955Z" style="fill:rgb(235,235,235);"/>
    </g>
    <g transform="matrix(0.977383,0,0,0.977383,89.0764,193.558)">
        <path d="M63.462,20.955C63.462,17.659 60.785,14.982 57.488,14.982L45.541,14.982C42.244,14.982 39.568,17.659 39.568,20.955L39.568,32.902C39.568,36.199 42.244,38.876 45.541,38.876L57.488,38.876C60.785,38.876 63.462,36.199 63.462,32.902L63.462,20.955Z" style="fill:rgb(235,235,235);"/>
    </g>
    <g transform="matrix(0.977383,0,0,0.977383,118.398,193.558)">
        <path d="M63.462,20.955C63.462,17.659 60.785,14.982 57.488,14.982L45.541,14.982C42.244,14.982 39.568,17.659 39.568,20.955L39.568,32.902C39.568,36.199 42.244,38.876 45.541,38.876L57.488,38.876C60.785,38.876 63.462,36.199 63.462,32.902L63.462,20.955Z" style="fill:rgb(235,235,235);"/>
    </g>
    <g transform="matrix(0.977383,0,0,0.977383,147.719,193.558)">
        <path d="M63.462,20.955C63.462,17.659 60.785,14.982 57.488,14.982L45.541,14.982C42.244,14.982 39.568,17.659 39.568,20.955L39.568,32.902C39.568,36.199 42.244,38.876 45.541,38.876L57.488,38.876C60.785,38.876 63.462,36.199 63.462,32.902L63.462,20.955Z" style="fill:rgb(235,235,235);"/>
    </g>
    <g transform="matrix(0.977383,0,0,0.977383,177.041,193.558)">
        <path d="M63.462,20.955C63.462,17.659 60.785,14.982 57.488,14.982L45.541,14.982C42.244,14.982 39.568,17.659 39.568,20.955L39.568,32.902C39.568,36.199 42.244,38.876 45.541,38.876L57.488,38.876C60.785,38.876 63.462,36.199 63.462,32.902L63.462,20.955Z" style="fill:rgb(235,235,235);"/>
    </g>
    <g transform="matrix(0.977383,0,0,0.977383,206.362,193.558)">
        <path d="M63.462,20.955C63.462,17.659 60.785,14.982 57.488,14.982L45.541,14.982C42.244,14.982 39.568,17.659 39.568,20.955L39.568,32.902C39.568,36.199 42.244,38.876 45.541,38.876L57.488,38.876C60.785,38.876 63.462,36.199 63.462,32.902L63.462,20.955Z" style="fill:rgb(235,235,235);"/>
    </g>
    <g transform="matrix(0.977383,0,0,0.977383,235.684,193.558)">
        <path d="M63.462,20.955C63.462,17.659 60.785,14.982 57.488,14.982L45.541,14.982C42.244,14.982 39.568,17.659 39.568,20.955L39.568,32.902C39.568,36.199 42.244,38.876 45.541,38.876L57.488,38.876C60.785,38.876 63.462,36.199 63.462,32.902L63.462,20.955Z" style="fill:rgb(235,235,235);"/>
    </g>
    <g transform="matrix(0.977383,0,0,0.977383,265.005,193.558)">
        <path d="M63.462,20.955C63.462,17.659 60.785,14.982 57.488,14.982L45.541,14.982C42.244,14.982 39.568,17.659 39.568,20.955L39.568,32.902C39.568,36.199 42.244,38.876 45.541,38.876L57.488,38.876C60.785,38.876 63.462,36.199 63.462,32.902L63.462,20.955Z" style="fill:rgb(235,235,235);"/>
    </g>
    <g transform="matrix(0.977383,0,0,0.977383,294.327,193.558)">
        <path d="M63.462,20.955C63.462,17.659 60.785,14.982 57.488,14.982L45.541,14.982C42.244,14.982 39.568,17.659 39.568,20.955L39.568,32.902C39.568,36.199 42.244,38.876 45.541,38.876L57.488,38.876C60.785,38.876 63.462,36.199 63.462,32.902L63.462,20.955Z" style="fill:rgb(235,235,235);"/>
    </g>
    <g transform="matrix(0.977383,0,0,0.977383,323.648,193.558)">
        <path d="M63.462,20.955C63.462,17.659 60.785,14.982 57.488,14.982L45.541,14.982C42.244,14.982 39.568,17.659 39.568,20.955L39.568,32.902C39.568,36.199 42.244,38.876 45.541,38.876L57.488,38.876C60.785,38.876 63.462,36.199 63.462,32.902L63.462,20.955Z" style="fill:rgb(235,235,235);"/>
    </g>
    <g transform="matrix(0.977383,0,0,0.977383,352.97,193.558)">
        <path d="M63.462,20.955C63.462,17.659 60.785,14.982 57.488,14.982L45.541,14.982C42.244,14.982 39.568,17.659 39.568,20.955L39.568,32.902C39.568,36.199 42.244,38.876 45.541,38.876L57.488,38.876C60.785,38.876 63.462,36.199 63.462,32.902L63.462,20.955Z" style="fill:rgb(235,235,235);"/>
    </g>
    <g transform="matrix(0.977383,0,0,0.977383,382.291,193.558)">
        <path d="M63.462,20.955C63.462,17.659 60.785,14.982 57.488,14.982L45.541,14.982C42.244,14.982 39.568,17.659 39.568,20.955L39.568,32.902C39.568,36.199 42.244,38.876 45.541,38.876L57.488,38.876C60.785,38.876 63.462,36.199 63.462,32.902L63.462,20.955Z" style="fill:rgb(235,235,235);"/>
    </g>
    <g transform="matrix(0.977383,0,0,0.977383,411.613,193.558)">
        <path d="M63.462,20.955C63.462,17.659 60.785,14.982 57.488,14.982L45.541,14.982C42.244,14.982 39.568,17.659 39.568,20.955L39.568,32.902C39.568,36.199 42.244,38.876 45.541,38.876L57.488,38.876C60.785,38.876 63.462,36.199 63.462,32.902L63.462,20.955Z" style="fill:rgb(235,235,235);"/>
    </g>
    <g transform="matrix(0.977383,0,0,0.977383,440.934,193.558)">
        <path d="M63.462,20.955C63.462,17.659 60.785,14.982 57.488,14.982L45.541,14.982C42.244,14.982 39.568,17.659 39.568,20.955L39.568,32.902C39.568,36.199 42.244,38.876 45.541,38.876L57.488,38.876C60.785,38.876 63.462,36.199 63.462,32.902L63.462,20.955Z" style="fill:rgb(235,235,235);"/>
    </g>
    <g transform="matrix(0.977383,0,0,0.977383,470.256,193.558)">
        <path d="M63.462,20.955C63.462,17.659 60.785,14.982 57.488,14.982L45.541,14.982C42.244,14.982 39.568,17.659 39.568,20.955L39.568,32.902C39.568,36.199 42.244,38.876 45.541,38.876L57.488,38.876C60.785,38.876 63.462,36.199 63.462,32.902L63.462,20.955Z" style="fill:rgb(235,235,235);"/>
    </g>
    <g transform="matrix(0.977383,0,0,0.977383,499.577,193.558)">
        <path d="M63.462,20.955C63.462,17.659 60.785,14.982 57.488,14.982L45.541,14.982C42.244,14.982 39.568,17.659 39.568,20.955L39.568,32.902C39.568,36.199 42.244,38.876 45.541,38.876L57.488,38.876C60.785,38.876 63.462,36.199 63.462,32.902L63.462,20.955Z" style="fill:rgb(235,235,235);"/>
    </g>
    <g transform="matrix(0.977383,0,0,0.977383,528.899,193.558)">
        <path d="M63.462,20.955C63.462,17.659 60.785,14.982 57.488,14.982L45.541,14.982C42.244,14.982 39.568,17.659 39.568,20.955L39.568,32.902C39.568,36.199 42.244,38.876 45.541,38.876L57.488,38.876C60.785,38.876 63.462,36.199 63.462,32.902L63.462,20.955Z" style="fill:rgb(235,235,235);"/>
    </g>
    <g transform="matrix(0.977383,0,0,0.977383,558.22,193.558)">
        <path d="M63.462,20.955C63.462,17.659 60.785,14.982 57.488,14.982L45.541,14.982C42.244,14.982 39.568,17.659 39.568,20.955L39.568,32.902C39.568,36.199 42.244,38.876 45.541,38.876L57.488,38.876C60.785,38.876 63.462,36.199 63.462,32.902L63.462,20.955Z" style="fill:rgb(235,235,235);"/>
    </g>
    <g transform="matrix(0.977383,0,0,0.977383,587.542,193.558)">
        <path d="M63.462,20.955C63.462,17.659 60.785,14.982 57.488,14.982L45.541,14.982C42.244,14.982 39.568,17.659 39.568,20.955L39.568,32.902C39.568,36.199 42.244,38.876 45.541,38.876L57.488,38.876C60.785,38.876 63.462,36.199 63.462,32.902L63.462,20.955Z" style="fill:rgb(235,235,235);"/>
    </g>
    <g transform="matrix(0.977383,0,0,0.977383,616.863,193.558)">
        <path d="M63.462,20.955C63.462,17.659 60.785,14.982 57.488,14.982L45.541,14.982C42.244,14.982 39.568,17.659 39.568,20.955L39.568,32.902C39.568,36.199 42.244,38.876 45.541,38.876L57.488,38.876C60.785,38.876 63.462,36.199 63.462,32.902L63.462,20.955Z" style="fill:rgb(235,235,235);"/>
    </g>
    <g transform="matrix(0.977383,0,0,0.977383,646.185,193.558)">
        <path d="M63.462,20.955C63.462,17.659 60.785,14.982 57.488,14.982L45.541,14.982C42.244,14.982 39.568,17.659 39.568,20.955L39.568,32.902C39.568,36.199 42.244,38.876 45.541,38.876L57.488,38.876C60.785,38.876 63.462,36.199 63.462,32.902L63.462,20.955Z" style="fill:rgb(235,235,235);"/>
    </g>
    <g transform="matrix(0.977383,0,0,0.977383,675.506,193.558)">
        <path d="M63.462,20.955C63.462,17.659 60.785,14.982 57.488,14.982L45.541,14.982C42.244,14.982 39.568,17.659 39.568,20.955L39.568,32.902C39.568,36.199 42.244,38.876 45.541,38.876L57.488,38.876C60.785,38.876 63.462,36.199 63.462,32.902L63.462,20.955Z" style="fill:rgb(235,235,235);"/>
    </g>
    <g transform="matrix(0.977383,0,0,0.977383,704.828,193.558)">
        <path d="M63.462,20.955C63.462,17.659 60.785,14.982 57.488,14.982L45.541,14.982C42.244,14.982 39.568,17.659 39.568,20.955L39.568,32.902C39.568,36.199 42.244,38.876 45.541,38.876L57.488,38.876C60.785,38.876 63.462,36.199 63.462,32.902L63.462,20.955Z" style="fill:rgb(235,235,235);"/>
    </g>
    <g transform="matrix(0.977383,0,0,0.977383,734.149,193.558)">
        <path d="M63.462,20.955C63.462,17.659 60.785,14.982 57.488,14.982L45.541,14.982C42.244,14.982 39.568,17.659 39.568,20.955L39.568,32.902C39.568,36.199 42.244,38.876 45.541,38.876L57.488,38.876C60.785,38.876 63.462,36.199 63.462,32.902L63.462,20.955Z" style="fill:rgb(235,235,235);"/>
    </g>
    <g transform="matrix(0.977383,0,0,0.977383,763.471,193.558)">
        <path d="M63.462,20.955C63.462,17.659 60.785,14.982 57.488,14.982L45.541,14.982C42.244,14.982 39.568,17.659 39.568,20.955L39.568,32.902C39.568,36.199 42.244,38.876 45.541,38.876L57.488,38.876C60.785,38.876 63.462,36.199 63.462,32.902L63.462,20.955Z" style="fill:rgb(235,235,235);"/>
    </g>
    <g transform="matrix(0.977383,0,0,0.977383,792.792,193.558)">
        <path d="M63.462,20.955C63.462,17.659 60.785,14.982 57.488,14.982L45.541,14.982C42.244,14.982 39.568,17.659 39.568,20.955L39.568,32.902C39.568,36.199 42.244,38.876 45.541,38.876L57.488,38.876C60.785,38.876 63.462,36.199 63.462,32.902L63.462,20.955Z" style="fill:rgb(235,235,235);"/>
    </g>
    <g transform="matrix(0.977383,0,0,0.977383,822.114,193.558)">
        <path d="M63.462,20.955C63.462,17.659 60.785,14.982 57.488,14.982L45.541,14.982C42.244,14.982 39.568,17.659 39.568,20.955L39.568,32.902C39.568,36.199 42.244,38.876 45.541,38.876L57.488,38.876C60.785,38.876 63.462,36.199 63.462,32.902L63.462,20.955Z" style="fill:rgb(235,235,235);"/>
    </g>
    <g transform="matrix(0.977383,0,0,0.977383,851.435,222.879)">
        <path d="M63.462,20.955C63.462,17.659 60.785,14.982 57.488,14.982L45.541,14.982C42.244,14.982 39.568,17.659 39.568,20.955L39.568,32.902C39.568,36.199 42.244,38.876 45.541,38.876L57.488,38.876C60.785,38.876 63.462,36.199 63.462,32.902L63.462,20.955Z" style="fill:rgb(0,147,255);"/>
    </g>
</svg>
